<svg width="71" height="71" viewBox="0 0 71 71" fill="none" xmlns="http://www.w3.org/2000/svg">
<path d="M35.5001 0.808594C42.0571 0.808594 48.3455 3.41335 52.982 8.04986C57.6185 12.6864 60.2233 18.9748 60.2233 25.5318C60.2233 35.9789 52.8824 47.3643 38.3908 59.8096C37.585 60.5018 36.5576 60.882 35.4953 60.881C34.433 60.8801 33.4063 60.4981 32.6018 59.8045L31.6432 58.9728C17.7932 46.8521 10.7769 35.7457 10.7769 25.5318C10.7769 18.9748 13.3816 12.6864 18.0181 8.04986C22.6546 3.41335 28.9431 0.808594 35.5001 0.808594Z" fill="#32A1A8"/>
<path d="M38.065 59.4303L38.065 59.4303C37.35 60.0445 36.4384 60.3819 35.4958 60.381C34.5532 60.3802 33.6423 60.0413 32.9284 59.426C32.9283 59.4259 32.9283 59.4259 32.9282 59.4258L31.9725 58.5965C31.9722 58.5962 31.9718 58.5959 31.9715 58.5956C18.1466 46.4967 11.2769 35.5183 11.2769 25.5318C11.2769 19.1074 13.8289 12.9461 18.3717 8.40341C22.9144 3.86068 29.0757 1.30859 35.5001 1.30859C41.9245 1.30859 48.0857 3.86068 52.6285 8.40341C57.1712 12.9461 59.7233 19.1074 59.7233 25.5318C59.7233 35.7475 52.534 47.0044 38.065 59.4303Z" stroke="url(#paint0_linear_2753_6425)" stroke-opacity="0.7"/>
<g filter="url(#filter0_d_2753_6425)">
<ellipse cx="35.3123" cy="25.1561" rx="16.5291" ry="16.5291" fill="white"/>
</g>
<g clip-path="url(#clip0_2753_6425)">
<path fill-rule="evenodd" clip-rule="evenodd" d="M35.4995 15.0582C35.2913 15.0582 35.0862 15.1085 34.9016 15.2049C34.7171 15.3013 34.5586 15.4409 34.4396 15.6118C34.3207 15.7827 34.2448 15.9798 34.2185 16.1864C34.1922 16.3929 34.2163 16.6027 34.2886 16.798L34.2887 16.7983C34.3802 17.0458 34.5453 17.2594 34.7619 17.4103C34.9784 17.5611 35.236 17.642 35.4999 17.642C35.7639 17.642 36.0215 17.5611 36.238 17.4103C36.4418 17.2683 36.6001 17.0708 36.6943 16.8417L36.7105 16.798C36.7828 16.6027 36.8068 16.3929 36.7805 16.1864C36.7542 15.9798 36.6783 15.7827 36.5594 15.6118C36.4405 15.4409 36.282 15.3013 36.0974 15.2049C35.9129 15.1085 35.7077 15.0582 35.4995 15.0582ZM37.3524 17.4463C37.1962 17.7105 36.9844 17.9395 36.7301 18.1167C36.3691 18.3681 35.9398 18.5029 35.4999 18.5029C35.0601 18.5029 34.6308 18.3681 34.2698 18.1167C34.0154 17.9395 33.8036 17.7104 33.6474 17.4461C32.3757 17.7789 31.2171 18.4486 30.2941 19.3844C30.4445 19.652 30.5366 19.95 30.5625 20.2589C30.5993 20.6968 30.5011 21.1355 30.2812 21.516C30.0612 21.8964 29.7301 22.2005 29.3322 22.3872C29.0519 22.5187 28.7479 22.5876 28.4413 22.5909C28.2724 23.2072 28.1824 23.8562 28.1824 24.5276L28.1824 24.528C28.1817 25.1827 28.269 25.8339 28.4415 26.4643C28.7481 26.4677 29.052 26.5366 29.3322 26.6681C29.7301 26.8548 30.0612 27.1588 30.2812 27.5393C30.5011 27.9198 30.5993 28.3585 30.5625 28.7964C30.5366 29.1051 30.4445 29.4031 30.2942 29.6706C30.8626 30.2461 31.5227 30.7243 32.2482 31.0853L31.8646 31.8561C31.0742 31.4627 30.3532 30.9448 29.7291 30.3231C29.583 30.4353 29.4226 30.5288 29.2515 30.6006C28.9315 30.7351 28.5837 30.7901 28.2379 30.7611C27.892 30.7321 27.5583 30.6198 27.2652 30.4339C26.9721 30.2481 26.7283 29.994 26.5546 29.6935C26.3808 29.393 26.2824 29.055 26.2676 28.7082C26.2528 28.3615 26.3221 28.0163 26.4695 27.702C26.617 27.3878 26.8382 27.114 27.1144 26.9038C27.2623 26.7912 27.4236 26.6987 27.594 26.6281C27.4126 25.9433 27.3208 25.2371 27.3215 24.5274C27.3215 23.8015 27.4159 23.0977 27.5938 22.4271C27.4235 22.3565 27.2623 22.264 27.1144 22.1515C26.8382 21.9413 26.617 21.6674 26.4695 21.3532C26.3221 21.039 26.2528 20.6938 26.2676 20.347C26.2824 20.0003 26.3808 19.6622 26.5546 19.3617C26.7283 19.0612 26.9721 18.8072 27.2652 18.6213C27.5583 18.4354 27.892 18.3232 28.2379 18.2942C28.5837 18.2651 28.9315 18.3202 29.2515 18.4546C29.4225 18.5265 29.5828 18.6198 29.7288 18.732C30.7371 17.7265 31.991 17.0018 33.3657 16.6302C33.3416 16.4475 33.3411 16.2618 33.3645 16.0776C33.4084 15.7334 33.5348 15.4048 33.733 15.12C33.9313 14.8352 34.1955 14.6025 34.503 14.4418C34.8106 14.2812 35.1525 14.1973 35.4995 14.1973C35.8465 14.1973 36.1884 14.2812 36.496 14.4418C36.8036 14.6025 37.0677 14.8352 37.266 15.12C37.4642 15.4048 37.5907 15.7334 37.6345 16.0776C37.6579 16.2617 37.6574 16.4475 37.6334 16.6302C39.0083 17.0017 40.2625 17.7264 41.271 18.732C41.4171 18.6198 41.5774 18.5265 41.7484 18.4546C42.0684 18.3202 42.4161 18.2651 42.762 18.2942C43.1079 18.3232 43.4416 18.4354 43.7347 18.6213C44.0278 18.8072 44.2716 19.0612 44.4453 19.3617C44.619 19.6622 44.7175 20.0003 44.7323 20.347C44.7471 20.6938 44.6778 21.039 44.5304 21.3532C44.3829 21.6674 44.1617 21.9413 43.8855 22.1515C43.7376 22.264 43.5764 22.3565 43.4061 22.4271C43.5839 23.0978 43.6784 23.802 43.6784 24.5271M42.5586 22.5909C42.252 22.5876 41.948 22.5187 41.6677 22.3872C41.2698 22.2005 40.9387 21.8964 40.7187 21.516C40.4988 21.1355 40.4006 20.6968 40.4374 20.2589C40.4633 19.95 40.5554 19.652 40.7058 19.3845C39.7827 18.4487 38.6241 17.779 37.3524 17.4463M42.5586 22.5909C42.7275 23.2074 42.8175 23.8569 42.8175 24.5276V24.5281C42.8183 25.1827 42.731 25.8339 42.5585 26.4643C42.2519 26.4677 41.948 26.5365 41.6677 26.6681C41.2698 26.8548 40.9387 27.1588 40.7187 27.5393C40.4988 27.9198 40.4006 28.3585 40.4374 28.7964C40.4633 29.1051 40.5554 29.403 40.7056 29.6705C40.1645 30.2183 39.5402 30.678 38.8551 31.0324L39.2506 31.7971C39.9961 31.4114 40.6773 30.9141 41.2708 30.3231C41.4169 30.4353 41.5773 30.5288 41.7484 30.6006C42.0684 30.7351 42.4161 30.7901 42.762 30.7611C43.1079 30.7321 43.4416 30.6198 43.7347 30.4339C44.0278 30.2481 44.2716 29.994 44.4453 29.6935C44.619 29.393 44.7175 29.055 44.7323 28.7082C44.7471 28.3615 44.6778 28.0163 44.5304 27.702C44.3829 27.3878 44.1617 27.114 43.8855 26.9038C43.7376 26.7912 43.5764 26.6988 43.4059 26.6281C43.5875 25.9434 43.6792 25.2373 43.6784 24.5276M27.3215 24.5274C27.3215 24.5274 27.3215 24.5273 27.3215 24.5272L27.7519 24.5276H27.3215C27.3215 24.5276 27.3215 24.5275 27.3215 24.5274ZM28.918 19.2483C28.726 19.1676 28.5174 19.1346 28.3099 19.152C28.1023 19.1694 27.9021 19.2368 27.7262 19.3483C27.5504 19.4599 27.4041 19.6123 27.2999 19.7926C27.1956 19.9729 27.1366 20.1757 27.1277 20.3838C27.1188 20.5918 27.1604 20.7989 27.2489 20.9875C27.3373 21.176 27.4701 21.3403 27.6358 21.4664C27.8015 21.5926 27.9953 21.6767 28.2006 21.7118C28.4605 21.7561 28.7278 21.7199 28.9665 21.6078C29.2052 21.4958 29.4039 21.3134 29.5358 21.0851C29.6678 20.8568 29.7267 20.5936 29.7047 20.3309C29.6826 20.0681 29.5807 19.8184 29.4125 19.6153C29.2797 19.4549 29.11 19.329 28.918 19.2483ZM42.69 19.152C42.4825 19.1346 42.2738 19.1676 42.0819 19.2483C41.8899 19.329 41.7202 19.4549 41.5874 19.6153C41.4192 19.8184 41.3173 20.0681 41.2952 20.3309C41.2732 20.5936 41.3321 20.8568 41.4641 21.0851C41.596 21.3134 41.7947 21.4958 42.0334 21.6078C42.2721 21.7199 42.5394 21.7561 42.7993 21.7118C43.0046 21.6767 43.1984 21.5926 43.3641 21.4664C43.5298 21.3403 43.6626 21.176 43.751 20.9875C43.8395 20.7989 43.8811 20.5918 43.8722 20.3838C43.8633 20.1757 43.8042 19.9729 43.7 19.7926C43.5958 19.6123 43.4495 19.4599 43.2736 19.3483C43.0978 19.2368 42.8976 19.1694 42.69 19.152ZM35.4995 23.2372C35.203 23.2372 34.9155 23.3393 34.6853 23.5262C34.4552 23.7132 34.2964 23.9736 34.2356 24.2638C34.1748 24.5541 34.2158 24.8564 34.3516 25.12C34.4874 25.3836 34.7098 25.5924 34.9814 25.7114L34.9819 25.7116C35.145 25.7833 35.3213 25.8204 35.4995 25.8204C35.6777 25.8204 35.854 25.7833 36.0171 25.7116L36.0177 25.7114C36.2893 25.5924 36.5117 25.3836 36.6475 25.12C36.7833 24.8564 36.8242 24.5541 36.7634 24.2638C36.7027 23.9736 36.5438 23.7132 36.3137 23.5262C36.0835 23.3393 35.796 23.2372 35.4995 23.2372ZM34.1426 22.858C34.5262 22.5464 35.0053 22.3763 35.4995 22.3763C35.9937 22.3763 36.4729 22.5464 36.8565 22.858C37.2401 23.1696 37.5047 23.6037 37.606 24.0874C37.7073 24.5711 37.6391 25.0749 37.4127 25.5143C37.2342 25.8609 36.9658 26.1506 36.6382 26.3549C36.918 30.2551 38.0856 32.146 39.1158 33.0665C39.6462 33.5404 40.1564 33.7724 40.526 33.8865C40.7113 33.9438 40.8619 33.9715 40.9624 33.985C41.0126 33.9917 41.0501 33.9948 41.073 33.9962C41.0818 33.9968 41.0885 33.9971 41.0928 33.9973C41.0942 33.9973 41.0953 33.9973 41.0961 33.9974C41.0978 33.9974 41.0988 33.9974 41.0989 33.9974L41.0981 33.9974L41.0971 33.9974L41.0965 33.9974C41.0961 33.9974 41.0957 33.9974 41.0957 34.4279C41.0957 34.8583 41.0953 34.8583 41.0949 34.8583L41.0939 34.8583L41.0917 34.8583L41.0861 34.8582L41.07 34.8579C41.0572 34.8575 41.0401 34.8568 41.0192 34.8554C40.9773 34.8528 40.9196 34.8478 40.8482 34.8383C40.7056 34.8192 40.5078 34.7819 40.272 34.7091C39.7994 34.5632 39.1762 34.2749 38.5422 33.7085C37.322 32.6182 36.1199 30.5519 35.7983 26.6604C35.6995 26.6742 35.5997 26.6812 35.4995 26.6812C35.3993 26.6812 35.2995 26.6742 35.2008 26.6604C34.8796 30.5518 33.6777 32.6181 32.4576 33.7085C31.8237 34.2749 31.2005 34.5632 30.7279 34.7091C30.4921 34.7819 30.2943 34.8192 30.1517 34.8383C30.0803 34.8478 30.0226 34.8528 29.9807 34.8554C29.9598 34.8568 29.9427 34.8575 29.9299 34.8579L29.9138 34.8582L29.9082 34.8583L29.906 34.8583L29.905 34.8583C29.9046 34.8583 29.9042 34.8583 29.9042 34.4279C29.9042 33.9974 29.9038 33.9974 29.9034 33.9974L29.9028 33.9974L29.9018 33.9974L29.9009 33.9974C29.9011 33.9974 29.9021 33.9974 29.9037 33.9974C29.9076 33.9973 29.9154 33.997 29.9269 33.9962C29.9498 33.9948 29.9873 33.9917 30.0375 33.985C30.138 33.9715 30.2885 33.9438 30.4739 33.8865C30.8435 33.7724 31.3536 33.5404 31.884 33.0665C32.9141 32.146 34.0814 30.2551 34.3609 26.3549C34.0333 26.1507 33.7649 25.8609 33.5863 25.5143C33.3599 25.0749 33.2917 24.5711 33.393 24.0874C33.4943 23.6037 33.759 23.1696 34.1426 22.858ZM28.9665 27.4474C28.7278 27.3354 28.4605 27.2991 28.2006 27.3435C27.9953 27.3785 27.8015 27.4627 27.6358 27.5888C27.4701 27.7149 27.3373 27.8793 27.2489 28.0678C27.1604 28.2563 27.1188 28.4634 27.1277 28.6715C27.1366 28.8796 27.1956 29.0824 27.2999 29.2627C27.4041 29.443 27.5504 29.5954 27.7262 29.7069C27.9021 29.8185 28.1023 29.8858 28.3099 29.9032C28.5174 29.9206 28.726 29.8876 28.918 29.8069C29.11 29.7263 29.2797 29.6004 29.4125 29.44C29.5807 29.2369 29.6826 28.9872 29.7047 28.7244C29.7267 28.4616 29.6678 28.1984 29.5358 27.9701C29.4039 27.7419 29.2052 27.5594 28.9665 27.4474ZM42.7993 27.3435C42.5394 27.2991 42.2721 27.3354 42.0334 27.4474C41.7947 27.5594 41.596 27.7419 41.4641 27.9701C41.3321 28.1984 41.2732 28.4616 41.2952 28.7244C41.3173 28.9872 41.4192 29.2369 41.5874 29.44C41.7202 29.6004 41.8899 29.7263 42.0819 29.8069C42.2738 29.8876 42.4825 29.9206 42.69 29.9032C42.8976 29.8858 43.0978 29.8185 43.2736 29.7069C43.4495 29.5954 43.5958 29.443 43.7 29.2627C43.8042 29.0824 43.8633 28.8796 43.8722 28.6715C43.8811 28.4634 43.8395 28.2563 43.751 28.0678C43.6626 27.8793 43.5298 27.7149 43.3641 27.5888C43.1984 27.4627 43.0046 27.3785 42.7993 27.3435Z" fill="#32A1A8"/>
</g>
<circle cx="35.4999" cy="68.1434" r="2.85632" fill="#32A1A8"/>
<defs>
<filter id="filter0_d_2753_6425" x="11.7832" y="5.62695" width="47.0581" height="47.0586" filterUnits="userSpaceOnUse" color-interpolation-filters="sRGB">
<feFlood flood-opacity="0" result="BackgroundImageFix"/>
<feColorMatrix in="SourceAlpha" type="matrix" values="0 0 0 0 0 0 0 0 0 0 0 0 0 0 0 0 0 0 127 0" result="hardAlpha"/>
<feOffset dy="4"/>
<feGaussianBlur stdDeviation="3.5"/>
<feComposite in2="hardAlpha" operator="out"/>
<feColorMatrix type="matrix" values="0 0 0 0 0 0 0 0 0 0 0 0 0 0 0 0 0 0 0.15 0"/>
<feBlend mode="normal" in2="BackgroundImageFix" result="effect1_dropShadow_2753_6425"/>
<feBlend mode="normal" in="SourceGraphic" in2="effect1_dropShadow_2753_6425" result="shape"/>
</filter>
<linearGradient id="paint0_linear_2753_6425" x1="35.5001" y1="0.808594" x2="35.5001" y2="60.8811" gradientUnits="userSpaceOnUse">
<stop stop-color="white"/>
<stop offset="1" stop-color="white" stop-opacity="0"/>
</linearGradient>
<clipPath id="clip0_2753_6425">
<rect width="20.6614" height="20.6614" fill="white" transform="translate(25.1694 14.1973)"/>
</clipPath>
</defs>
</svg>
