<svg width="71" height="71" viewBox="0 0 71 71" fill="none" xmlns="http://www.w3.org/2000/svg">
<path d="M35.5001 0.808594C42.0571 0.808594 48.3455 3.41335 52.982 8.04986C57.6185 12.6864 60.2233 18.9748 60.2233 25.5318C60.2233 35.9789 52.8824 47.3643 38.3908 59.8096C37.585 60.5018 36.5576 60.882 35.4953 60.881C34.433 60.8801 33.4063 60.4981 32.6018 59.8045L31.6432 58.9728C17.7932 46.8521 10.7769 35.7457 10.7769 25.5318C10.7769 18.9748 13.3816 12.6864 18.0181 8.04986C22.6546 3.41335 28.9431 0.808594 35.5001 0.808594Z" fill="#9BA84A"/>
<path d="M38.065 59.4303L38.065 59.4303C37.35 60.0445 36.4384 60.3819 35.4958 60.381C34.5532 60.3802 33.6423 60.0413 32.9284 59.426C32.9283 59.4259 32.9283 59.4259 32.9282 59.4258L31.9725 58.5965C31.9722 58.5962 31.9718 58.5959 31.9715 58.5956C18.1466 46.4967 11.2769 35.5183 11.2769 25.5318C11.2769 19.1074 13.8289 12.9461 18.3717 8.40341C22.9144 3.86068 29.0757 1.30859 35.5001 1.30859C41.9245 1.30859 48.0857 3.86068 52.6285 8.40341C57.1712 12.9461 59.7233 19.1074 59.7233 25.5318C59.7233 35.7475 52.534 47.0044 38.065 59.4303Z" stroke="url(#paint0_linear_2753_7919)" stroke-opacity="0.7"/>
<g filter="url(#filter0_d_2753_7919)">
<ellipse cx="35.3123" cy="25.1561" rx="16.5291" ry="16.5291" fill="white"/>
</g>
<path fill-rule="evenodd" clip-rule="evenodd" d="M32.0856 15.1384C32.3449 14.9688 32.6926 15.0416 32.8622 15.301L35.5 19.3353L38.1379 15.301C38.3075 15.0416 38.6552 14.9688 38.9145 15.1384C39.1739 15.308 39.2466 15.6557 39.0771 15.915L36.1704 20.3605L46.0688 35.4992C46.1815 35.6717 46.1907 35.892 46.0927 36.0732C45.9947 36.2544 45.8052 36.3673 45.5992 36.3673H25.4009C25.1949 36.3673 25.0054 36.2544 24.9074 36.0732C24.8094 35.892 24.8186 35.6717 24.9313 35.4992L34.8297 20.3605L31.923 15.915C31.7535 15.6557 31.8262 15.308 32.0856 15.1384ZM35.5 21.3858L26.4381 35.2452H34.939V31.1451C34.939 30.8353 35.1902 30.5841 35.5 30.5841C35.8099 30.5841 36.0611 30.8353 36.0611 31.1451V35.2452H44.562L35.5 21.3858Z" fill="#9BA84A"/>
<circle cx="35.4999" cy="68.1434" r="2.85632" fill="#9BA84A"/>
<defs>
<filter id="filter0_d_2753_7919" x="11.7832" y="5.62695" width="47.0581" height="47.0586" filterUnits="userSpaceOnUse" color-interpolation-filters="sRGB">
<feFlood flood-opacity="0" result="BackgroundImageFix"/>
<feColorMatrix in="SourceAlpha" type="matrix" values="0 0 0 0 0 0 0 0 0 0 0 0 0 0 0 0 0 0 127 0" result="hardAlpha"/>
<feOffset dy="4"/>
<feGaussianBlur stdDeviation="3.5"/>
<feComposite in2="hardAlpha" operator="out"/>
<feColorMatrix type="matrix" values="0 0 0 0 0 0 0 0 0 0 0 0 0 0 0 0 0 0 0.15 0"/>
<feBlend mode="normal" in2="BackgroundImageFix" result="effect1_dropShadow_2753_7919"/>
<feBlend mode="normal" in="SourceGraphic" in2="effect1_dropShadow_2753_7919" result="shape"/>
</filter>
<linearGradient id="paint0_linear_2753_7919" x1="35.5001" y1="0.808594" x2="35.5001" y2="60.8811" gradientUnits="userSpaceOnUse">
<stop stop-color="white"/>
<stop offset="1" stop-color="white" stop-opacity="0"/>
</linearGradient>
</defs>
</svg>
