<svg width="71" height="71" viewBox="0 0 71 71" fill="none" xmlns="http://www.w3.org/2000/svg">
<path d="M35.5001 0.808594C42.0571 0.808594 48.3455 3.41335 52.982 8.04986C57.6185 12.6864 60.2233 18.9748 60.2233 25.5318C60.2233 35.9789 52.8824 47.3643 38.3908 59.8096C37.585 60.5018 36.5576 60.882 35.4953 60.881C34.433 60.8801 33.4063 60.4981 32.6018 59.8045L31.6432 58.9728C17.7932 46.8521 10.7769 35.7457 10.7769 25.5318C10.7769 18.9748 13.3816 12.6864 18.0181 8.04986C22.6546 3.41335 28.9431 0.808594 35.5001 0.808594Z" fill="#8A484C"/>
<path d="M38.065 59.4303L38.065 59.4303C37.35 60.0445 36.4384 60.3819 35.4958 60.381C34.5535 60.3802 33.6428 60.0415 32.929 59.4265C32.9288 59.4263 32.9285 59.4261 32.9282 59.4258L31.9725 58.5965C31.9722 58.5962 31.9718 58.5959 31.9715 58.5956C18.1466 46.4967 11.2769 35.5183 11.2769 25.5318C11.2769 19.1074 13.8289 12.9461 18.3717 8.40341C22.9144 3.86068 29.0757 1.30859 35.5001 1.30859C41.9245 1.30859 48.0857 3.86067 52.6285 8.40341C57.1712 12.9461 59.7233 19.1074 59.7233 25.5318C59.7233 35.7475 52.534 47.0044 38.065 59.4303Z" stroke="url(#paint0_linear_2753_5391)" stroke-opacity="0.7"/>
<g filter="url(#filter0_d_2753_5391)">
<ellipse cx="35.3123" cy="25.1561" rx="16.5291" ry="16.5291" fill="white"/>
</g>
<path d="M38.9435 33.9532V21.9007C38.9435 19.4661 38.9435 18.2479 38.1868 17.4921C37.4309 16.7354 36.2128 16.7354 33.7782 16.7354H32.9173C30.4827 16.7354 29.2645 16.7354 28.5087 17.4921C27.752 18.2479 27.752 19.4661 27.752 21.9007V33.9532" stroke="#8A484C"/>
<path d="M34.6389 20.1787H32.0563C31.2444 20.1787 30.839 20.1787 30.5867 20.431C30.3345 20.6832 30.3345 21.0887 30.3345 21.9005C30.3345 22.7123 30.3345 23.1178 30.5867 23.37C30.839 23.6223 31.2444 23.6223 32.0563 23.6223H34.6389C35.4507 23.6223 35.8562 23.6223 36.1085 23.37C36.3607 23.1178 36.3607 22.7123 36.3607 21.9005C36.3607 21.0887 36.3607 20.6832 36.1085 20.431C35.8562 20.1787 35.4507 20.1787 34.6389 20.1787Z" stroke="#8A484C"/>
<path d="M31.1956 29.6486H35.5M39.8045 33.9531H26.8911M41.9567 18.457L43.0182 19.3059C43.137 19.4006 43.1964 19.4488 43.2506 19.497C43.7594 19.9535 44.0666 20.5931 44.1046 21.2756C44.1089 21.3479 44.1089 21.4237 44.1089 21.5752V30.9399C44.1089 31.2824 43.9729 31.6109 43.7307 31.8531C43.4885 32.0952 43.1601 32.2313 42.8176 32.2313C42.4751 32.2313 42.1466 32.0952 41.9045 31.8531C41.6623 31.6109 41.5263 31.2824 41.5263 30.9399V30.8788C41.5263 30.1987 40.9753 29.6486 40.296 29.6486H38.9436" stroke="#8A484C" stroke-linecap="round"/>
<path d="M44.109 21.9004H42.8177C42.4752 21.9004 42.1468 22.0364 41.9046 22.2786C41.6624 22.5208 41.5264 22.8492 41.5264 23.1917V25.2742C41.5264 25.5453 41.6117 25.8095 41.7702 26.0293C41.9288 26.2492 42.1525 26.4136 42.4096 26.4993L44.109 27.0657" stroke="#8A484C" stroke-linecap="round"/>
<circle cx="35.4999" cy="68.1434" r="2.85632" fill="#8A484C"/>
<defs>
<filter id="filter0_d_2753_5391" x="11.7832" y="5.62695" width="47.0581" height="47.0586" filterUnits="userSpaceOnUse" color-interpolation-filters="sRGB">
<feFlood flood-opacity="0" result="BackgroundImageFix"/>
<feColorMatrix in="SourceAlpha" type="matrix" values="0 0 0 0 0 0 0 0 0 0 0 0 0 0 0 0 0 0 127 0" result="hardAlpha"/>
<feOffset dy="4"/>
<feGaussianBlur stdDeviation="3.5"/>
<feComposite in2="hardAlpha" operator="out"/>
<feColorMatrix type="matrix" values="0 0 0 0 0 0 0 0 0 0 0 0 0 0 0 0 0 0 0.15 0"/>
<feBlend mode="normal" in2="BackgroundImageFix" result="effect1_dropShadow_2753_5391"/>
<feBlend mode="normal" in="SourceGraphic" in2="effect1_dropShadow_2753_5391" result="shape"/>
</filter>
<linearGradient id="paint0_linear_2753_5391" x1="35.5001" y1="0.808594" x2="35.5001" y2="60.8811" gradientUnits="userSpaceOnUse">
<stop stop-color="white"/>
<stop offset="1" stop-color="white" stop-opacity="0"/>
</linearGradient>
</defs>
</svg>
