<svg width="71" height="71" viewBox="0 0 71 71" fill="none" xmlns="http://www.w3.org/2000/svg">
<path d="M35.5001 0.808594C42.0571 0.808594 48.3455 3.41335 52.982 8.04986C57.6185 12.6864 60.2233 18.9748 60.2233 25.5318C60.2233 35.979 52.8824 47.3643 38.3908 59.8096C37.585 60.5018 36.5576 60.882 35.4953 60.8811C34.433 60.8801 33.4063 60.4981 32.6017 59.8045L31.6432 58.9728C17.7932 46.8521 10.7769 35.7457 10.7769 25.5318C10.7769 18.9748 13.3816 12.6864 18.0181 8.04986C22.6546 3.41335 28.9431 0.808594 35.5001 0.808594Z" fill="#7E5DA8"/>
<path d="M38.065 59.4303L38.065 59.4303C37.35 60.0445 36.4384 60.3819 35.4958 60.3811C34.5532 60.3802 33.6421 60.0413 32.9282 59.4258L31.9725 58.5965C31.9722 58.5962 31.9718 58.5959 31.9715 58.5956C18.1466 46.4967 11.2769 35.5183 11.2769 25.5318C11.2769 19.1074 13.8289 12.9461 18.3717 8.40341C22.9144 3.86068 29.0757 1.30859 35.5001 1.30859C41.9245 1.30859 48.0857 3.86068 52.6285 8.40341C57.1712 12.9461 59.7233 19.1074 59.7233 25.5318C59.7233 35.7475 52.534 47.0044 38.065 59.4303Z" stroke="url(#paint0_linear_2753_5971)" stroke-opacity="0.7"/>
<g filter="url(#filter0_d_2753_5971)">
<ellipse cx="35.3123" cy="25.1561" rx="16.5291" ry="16.5291" fill="white"/>
</g>
<g clip-path="url(#clip0_2753_5971)">
<path d="M25.2745 15.1224L25.1655 15.2273L25.1776 18.0763L25.1897 20.9253L25.3189 21.2482C25.5449 21.801 25.9968 22.3014 26.5093 22.5637L26.6627 22.6404V28.7097V34.7749L26.7878 35.0211C27.0016 35.4569 27.3689 35.6748 27.8733 35.6748C28.3777 35.6748 28.7449 35.4569 28.9588 35.0211L29.0839 34.7749V28.7097V22.6404L29.2373 22.5637C29.7498 22.3014 30.2017 21.801 30.4277 21.2482L30.5569 20.9253L30.569 18.0763L30.5811 15.2273L30.4721 15.1224C30.3188 14.969 30.0282 14.969 29.8749 15.1183L29.7699 15.2273V17.4993V19.7752H29.4068H29.0436V17.4993V15.2273L28.9386 15.1183C28.8539 15.0336 28.7934 15.0134 28.64 15.0134C28.4867 15.0134 28.4262 15.0336 28.3414 15.1183L28.2365 15.2273V17.4993V19.7752H27.8733H27.5101V17.4993V15.2273L27.4052 15.1183C27.3204 15.0336 27.2599 15.0134 27.1066 15.0134C26.9532 15.0134 26.8927 15.0336 26.8079 15.1183L26.703 15.2273V17.4993V19.7752H26.3398H25.9766V17.4993V15.2273L25.8717 15.1183C25.7184 14.969 25.4278 14.969 25.2745 15.1224ZM29.7135 20.6913C29.657 20.9253 29.4431 21.3006 29.2574 21.4903C29.1283 21.6194 28.9508 21.7405 28.7328 21.8414C28.5512 21.9261 28.3737 22.0351 28.3374 22.0875C28.2849 22.1642 28.2768 22.8583 28.2768 28.2738C28.2768 31.6273 28.2647 34.4279 28.2526 34.5005C28.2123 34.6861 28.0549 34.8274 27.8773 34.8274C27.6836 34.8274 27.5626 34.7386 27.5101 34.553C27.4859 34.4521 27.4698 32.3698 27.4698 28.2859C27.4698 22.2812 27.4698 22.1642 27.389 22.0674C27.3487 22.0109 27.2236 21.9342 27.1187 21.8938C26.8564 21.7929 26.6506 21.6598 26.4609 21.4661C26.3035 21.3006 26.0856 20.9092 26.0331 20.6913L26.0089 20.5823H27.8733H29.7377L29.7135 20.6913Z" fill="#7E5DA8"/>
<path d="M44.947 15.2313C43.5347 16.2684 42.5581 17.7938 42.1545 19.5936C42.0617 19.9931 42.0617 20.0456 42.0496 23.3183C42.0335 26.9946 42.0254 26.8493 42.2917 27.3215C42.3603 27.4466 42.6388 27.7694 42.9132 28.0519L43.4096 28.5604V31.6676V34.7749L43.5347 35.0211C43.7485 35.4569 44.1158 35.6748 44.6202 35.6748C45.1246 35.6748 45.4918 35.4569 45.7057 35.0211L45.8308 34.7749V25.0011V15.2273L45.7259 15.1183C45.6411 15.0336 45.5806 15.0134 45.4313 15.0134C45.2699 15.0134 45.2053 15.0457 44.947 15.2313ZM45.0035 34.4521C44.9713 34.6781 44.8179 34.8274 44.6242 34.8274C44.4305 34.8274 44.3095 34.7386 44.257 34.553C44.2328 34.4561 44.2166 33.306 44.2166 31.2802V28.1568L43.6517 27.5838C43.2199 27.1439 43.0625 26.9543 42.9778 26.7727L42.8648 26.5346V23.5282C42.8648 20.7962 42.8728 20.4814 42.9374 20.0819C43.1674 18.722 43.7687 17.5275 44.6969 16.5913L45.0035 16.2846L45.0157 25.2836C45.0197 30.2351 45.0157 34.3593 45.0035 34.4521Z" fill="#7E5DA8"/>
<path d="M34.8951 17.6366C33.9589 17.7052 32.95 17.9755 32.151 18.3751C31.8282 18.5365 31.7111 18.7181 31.7878 18.9481C31.8443 19.1256 32.0017 19.2507 32.1671 19.2507C32.2357 19.2507 32.4052 19.1983 32.5465 19.1297C33.2971 18.7746 34.1445 18.5526 34.9879 18.488C36.933 18.3387 38.8296 19.0207 40.2461 20.3807C40.4277 20.5542 40.6133 20.7075 40.6617 20.7237C40.9079 20.8003 41.1742 20.6309 41.2186 20.3645C41.2509 20.1587 41.1258 19.9852 40.6133 19.5413C38.9951 18.1491 37.0056 17.4832 34.8951 17.6366Z" fill="#7E5DA8"/>
<path d="M34.5116 19.6782C33.3454 19.88 32.2962 20.4328 31.4447 21.2883C30.5771 22.1519 30.0363 23.1931 29.8346 24.3714C29.7498 24.8718 29.7498 25.8161 29.8346 26.3165C30.0363 27.4908 30.5811 28.536 31.4447 29.3995C32.3083 30.2631 33.3534 30.8079 34.5278 31.0097C35.0281 31.0944 35.9724 31.0944 36.4728 31.0097C38.2847 30.703 39.8908 29.4883 40.6818 27.8298C41.0651 27.0308 41.2306 26.2761 41.2306 25.3439C41.2306 23.75 40.6777 22.4062 39.5559 21.2883C38.6923 20.4207 37.6512 19.88 36.4728 19.6782C36.0007 19.5975 34.9676 19.5975 34.5116 19.6782ZM35.9886 20.4772C37.0499 20.5499 38.2726 21.1471 39.0434 21.9744C39.6447 22.612 40.024 23.3141 40.2661 24.214C40.3872 24.6539 40.4154 25.6789 40.3267 26.1712C39.9594 28.1687 38.4784 29.6982 36.4849 30.1461C35.9845 30.2591 35.016 30.2591 34.5156 30.1461C32.5746 29.7103 31.1743 28.3059 30.6901 26.3124C30.6578 26.1672 30.6376 25.8282 30.6376 25.3439C30.6376 24.8597 30.6578 24.5207 30.6901 24.3754C31.134 22.5514 32.3406 21.2157 34.0475 20.6709C34.5197 20.5216 35.234 20.4167 35.581 20.449C35.6375 20.453 35.8191 20.4651 35.9886 20.4772Z" fill="#7E5DA8"/>
<path d="M35.2338 21.6925C35.0441 21.8216 35.0078 22.1848 35.1732 22.3341C35.2701 22.4229 35.4638 22.4753 35.5929 22.4511C35.8956 22.3906 36.0207 21.9588 35.7987 21.7369C35.714 21.6521 35.6535 21.6319 35.5041 21.6319C35.3992 21.6319 35.2782 21.6602 35.2338 21.6925Z" fill="#7E5DA8"/>
<path d="M33.8901 21.9749C33.309 22.2493 32.6431 22.8506 32.3162 23.3994C31.9773 23.9644 31.7876 24.6222 31.7876 25.2154C31.7876 25.5059 31.7957 25.5463 31.8925 25.6431C31.9773 25.7279 32.0378 25.748 32.1911 25.748C32.5019 25.748 32.635 25.5624 32.635 25.1226C32.635 24.8522 32.7803 24.3599 32.9659 24.0007C33.204 23.5407 33.6964 23.0483 34.1564 22.8103C34.5317 22.6166 34.6124 22.5278 34.6124 22.3058C34.6124 22.1081 34.5599 22.0112 34.4106 21.9346C34.2492 21.8498 34.1443 21.8579 33.8901 21.9749Z" fill="#7E5DA8"/>
<path d="M40.9119 29.6138C39.9111 30.667 39.4672 31.0302 38.6601 31.4458C36.5294 32.5475 34.0718 32.4749 31.9855 31.2521C31.6062 31.0302 31.4367 31.0181 31.2591 31.1916C31.1623 31.2885 31.1421 31.345 31.1421 31.4983C31.1421 31.7364 31.2268 31.8211 31.7514 32.1117C32.5383 32.5435 33.4988 32.8663 34.3906 32.9914C34.9273 33.0681 35.9402 33.0802 36.481 33.0116C37.7521 32.8582 39.0394 32.3457 40.0806 31.579C40.7141 31.1149 41.497 30.32 41.6261 30.0173C41.7391 29.751 41.5333 29.4604 41.2226 29.4604C41.0854 29.4604 41.037 29.4846 40.9119 29.6138Z" fill="#7E5DA8"/>
<path d="M30.0362 30.211C29.8425 30.4087 29.9071 30.78 30.1613 30.9091C30.4882 31.0786 30.8756 30.7275 30.7424 30.3805C30.6738 30.1949 30.5406 30.1061 30.3308 30.1061C30.1815 30.1061 30.121 30.1263 30.0362 30.211Z" fill="#7E5DA8"/>
</g>
<circle cx="35.4999" cy="68.1434" r="2.85632" fill="#7E5DA8"/>
<defs>
<filter id="filter0_d_2753_5971" x="11.7832" y="5.62695" width="47.0581" height="47.0586" filterUnits="userSpaceOnUse" color-interpolation-filters="sRGB">
<feFlood flood-opacity="0" result="BackgroundImageFix"/>
<feColorMatrix in="SourceAlpha" type="matrix" values="0 0 0 0 0 0 0 0 0 0 0 0 0 0 0 0 0 0 127 0" result="hardAlpha"/>
<feOffset dy="4"/>
<feGaussianBlur stdDeviation="3.5"/>
<feComposite in2="hardAlpha" operator="out"/>
<feColorMatrix type="matrix" values="0 0 0 0 0 0 0 0 0 0 0 0 0 0 0 0 0 0 0.15 0"/>
<feBlend mode="normal" in2="BackgroundImageFix" result="effect1_dropShadow_2753_5971"/>
<feBlend mode="normal" in="SourceGraphic" in2="effect1_dropShadow_2753_5971" result="shape"/>
</filter>
<linearGradient id="paint0_linear_2753_5971" x1="35.5001" y1="0.808594" x2="35.5001" y2="60.8811" gradientUnits="userSpaceOnUse">
<stop stop-color="white"/>
<stop offset="1" stop-color="white" stop-opacity="0"/>
</linearGradient>
<clipPath id="clip0_2753_5971">
<rect width="20.6614" height="20.6614" fill="white" transform="translate(25.1694 15.0137)"/>
</clipPath>
</defs>
</svg>
