<svg width="71" height="71" viewBox="0 0 71 71" fill="none" xmlns="http://www.w3.org/2000/svg">
<path d="M35.5001 0.808594C42.0571 0.808594 48.3455 3.41335 52.982 8.04986C57.6185 12.6864 60.2233 18.9748 60.2233 25.5318C60.2233 35.9789 52.8824 47.3643 38.3908 59.8096C37.585 60.5018 36.5576 60.882 35.4953 60.881C34.433 60.8801 33.4063 60.4981 32.6018 59.8045L31.6432 58.9728C17.7932 46.8521 10.7769 35.7457 10.7769 25.5318C10.7769 18.9748 13.3816 12.6864 18.0181 8.04986C22.6546 3.41335 28.9431 0.808594 35.5001 0.808594Z" fill="#A85DA0"/>
<path d="M38.065 59.4303L38.065 59.4303C37.35 60.0445 36.4384 60.3819 35.4958 60.381C34.5532 60.3802 33.6423 60.0413 32.9284 59.426C32.9283 59.4259 32.9283 59.4259 32.9282 59.4258L31.9725 58.5965C31.9722 58.5962 31.9718 58.5959 31.9715 58.5956C18.1466 46.4967 11.2769 35.5183 11.2769 25.5318C11.2769 19.1074 13.8289 12.9461 18.3717 8.40341C22.9144 3.86068 29.0757 1.30859 35.5001 1.30859C41.9245 1.30859 48.0857 3.86068 52.6285 8.40341C57.1712 12.9461 59.7233 19.1074 59.7233 25.5318C59.7233 35.7475 52.534 47.0044 38.065 59.4303Z" stroke="url(#paint0_linear_2753_5360)" stroke-opacity="0.7"/>
<g filter="url(#filter0_d_2753_5360)">
<ellipse cx="35.3123" cy="25.1561" rx="16.5291" ry="16.5291" fill="white"/>
</g>
<path d="M26.8975 13.9254C26.7653 14.0286 25.655 15.6124 25.5801 15.8103C25.417 16.2364 25.4347 16.7313 25.6329 17.11L25.7167 17.2736H25.373C24.9808 17.2736 24.7649 17.3295 24.6988 17.45C24.6724 17.5017 24.6548 17.889 24.6592 18.4269C24.6636 19.2317 24.6548 19.3393 24.5754 19.5459C24.4961 19.7352 24.4829 19.8686 24.4829 20.4066C24.4829 21.1683 24.5314 21.3491 24.8222 21.6633C25.0293 21.8913 25.254 22.0248 25.558 22.1108L25.7387 22.1625L25.8973 23.4062C25.9854 24.0948 26.0736 24.6887 26.0912 24.736C26.1132 24.7791 26.1837 24.8393 26.2586 24.8694C26.3864 24.9211 26.404 24.9727 26.9768 26.7845L27.5629 28.648L27.3426 28.9277C26.9768 29.4011 26.8623 29.1903 28.8671 31.738L30.6076 33.9458V34.7204C30.6076 35.5424 30.6472 35.792 30.7838 35.8652C30.8367 35.8953 33.1235 35.9082 37.543 35.9082C44.1347 35.9082 44.2228 35.9082 44.311 35.8221C44.3594 35.7748 44.4079 35.693 44.4211 35.6414C44.4476 35.5467 44.4652 35.5424 44.919 35.5424C45.3464 35.5424 45.4125 35.5295 45.6417 35.4219C45.9633 35.267 46.3026 34.9098 46.4216 34.5956C46.5493 34.2642 46.5493 33.7607 46.4216 33.4293C46.329 33.1883 45.9809 32.7881 45.7298 32.6332L45.6284 32.5729L45.8928 31.8972C46.2321 31.0408 46.2409 30.8515 45.9369 30.7482C45.8443 30.718 45.2363 30.7008 44.1391 30.7008H42.4824L42.2929 30.3436C42.1916 30.1457 41.9977 29.8659 41.8655 29.7239L41.6232 29.4614L41.6099 27.684C41.5967 26.0142 41.5923 25.8851 41.5042 25.6355C41.3852 25.2826 41.1825 24.9856 40.9005 24.7317C40.689 24.5424 40.6714 24.5122 40.7067 24.396L40.7375 24.2669L42.3105 23.8839C43.3857 23.6214 43.91 23.4751 43.9673 23.4191C44.0554 23.3331 44.073 23.0877 44.0025 22.9586C43.9408 22.8424 43.8527 22.8166 42.2841 22.4379C41.4954 22.2485 40.8256 22.0807 40.7948 22.0592C40.764 22.042 40.6935 21.9043 40.6362 21.7493C40.5833 21.5944 40.4952 21.3878 40.4423 21.2888L40.3454 21.1081L41.1693 19.7697C42.055 18.3237 42.0946 18.2333 41.8964 18.0396C41.6893 17.8373 41.5835 17.8804 40.1118 18.7454L38.7503 19.5459L38.4375 19.4039C38.2612 19.3264 38.0409 19.2403 37.944 19.2102L37.7633 19.1586L37.4196 17.7986C36.9437 15.9351 36.979 16.0298 36.7939 15.9567C36.6617 15.905 36.6265 15.905 36.4943 15.9567C36.3092 16.0298 36.3445 15.9351 35.8686 17.7986L35.5249 19.1586L35.3443 19.2102C35.2473 19.2403 35.027 19.3264 34.8508 19.4039L34.5379 19.5459L33.1764 18.7454C31.7179 17.889 31.5946 17.8373 31.4007 18.0267C31.1848 18.2376 31.198 18.2677 32.1013 19.7395L32.9429 21.1081L32.8459 21.2888C32.7931 21.3878 32.7049 21.5944 32.6521 21.7493C32.5948 21.9043 32.5243 22.042 32.4934 22.0592C32.4626 22.0807 31.7929 22.2485 31.0041 22.4379C30.2154 22.6273 29.5148 22.808 29.4443 22.8338C29.3782 22.8597 29.2945 22.9371 29.2681 23.006C29.2152 23.1222 29.1976 23.0834 28.9112 22.2873L28.6116 21.4438L28.7393 20.4238L28.8671 19.4039L29.1667 19.3823C29.5985 19.3522 29.5941 19.3651 29.5941 18.3581C29.5941 17.8976 29.5765 17.4931 29.5501 17.4457C29.4884 17.3295 29.2681 17.2736 28.8803 17.2736H28.5366L28.6204 17.11C28.8142 16.7399 28.8319 16.2321 28.6732 15.8103C28.5983 15.6124 27.488 14.0286 27.3558 13.9254C27.3161 13.8995 27.2148 13.8737 27.1267 13.8737C27.0385 13.8737 26.9372 13.8995 26.8975 13.9254ZM27.532 15.4316C27.7391 15.7243 27.9286 15.9997 27.9506 16.047C28.2282 16.5893 27.77 17.2736 27.1267 17.2736C26.5406 17.2736 26.0736 16.6797 26.2542 16.1718C26.3203 15.9911 27.065 14.9066 27.1267 14.9066C27.1443 14.9066 27.3293 15.1433 27.532 15.4316ZM36.7983 18.3796C36.8644 18.6593 36.9305 18.9175 36.9393 18.952C36.957 19.0079 36.9041 19.0208 36.6441 19.0208C36.3842 19.0208 36.3313 19.0079 36.3489 18.952C36.3577 18.9175 36.4238 18.6593 36.4899 18.3796C36.5604 18.1042 36.6309 17.8761 36.6441 17.8761C36.6573 17.8761 36.7278 18.1042 36.7983 18.3796ZM28.8891 18.328V18.6507H27.1267H25.3642V18.328V18.0052H27.1267H28.8891V18.328ZM26.1573 19.477C26.4084 19.6018 26.5406 19.7955 26.5803 20.101C26.6243 20.4453 26.5715 20.9144 26.4745 21.0737C26.2102 21.5212 25.5757 21.5169 25.3025 21.0607C25.2232 20.9316 25.2099 20.837 25.2099 20.4152C25.2099 19.8859 25.2496 19.7568 25.4611 19.5717C25.5624 19.477 25.7695 19.3909 25.8929 19.3866C25.9326 19.3823 26.0515 19.4254 26.1573 19.477ZM28.096 19.4125C28.1004 19.434 27.9638 20.5056 27.8008 21.801L27.5012 24.1593H27.1267H26.7477L26.6155 23.105L26.4833 22.0506L26.686 21.9172C26.9284 21.7536 27.1443 21.4825 27.2368 21.2329C27.3293 20.979 27.3293 19.8557 27.2368 19.5975C27.2016 19.4985 27.1707 19.4082 27.1707 19.3996C27.1707 19.3651 28.096 19.3823 28.096 19.4125ZM33.3967 19.7481C33.6303 19.8816 33.8241 20.0064 33.8241 20.0236C33.8241 20.0666 33.432 20.4367 33.4099 20.4109C33.4011 20.4023 33.2513 20.1613 33.0751 19.8816C32.8459 19.5071 32.7887 19.3866 32.8636 19.434C32.9209 19.4684 33.1588 19.6104 33.3967 19.7481ZM40.2088 19.8859C40.0369 20.1656 39.8871 20.4023 39.8783 20.4109C39.8519 20.441 39.4597 20.058 39.4729 20.0193C39.4817 19.9935 40.4643 19.3909 40.5084 19.3823C40.5128 19.3823 40.3806 19.6104 40.2088 19.8859ZM37.4813 19.8385C37.8999 19.9375 38.5168 20.2474 38.8516 20.5185C39.3848 20.9445 39.7417 21.4567 39.9796 22.1151C40.0942 22.4379 40.0986 22.5068 40.0986 23.148C40.103 23.8021 40.0942 23.8538 39.9708 24.2024L39.8386 24.5682L39.8122 23.8796C39.7946 23.4105 39.7593 23.1136 39.7065 22.9543C39.3231 21.7665 38.2612 20.9015 37.0187 20.7638C35.5161 20.596 34.1105 21.461 33.6214 22.8467C33.5157 23.148 33.4981 23.2814 33.476 23.8796L33.4496 24.5682L33.3218 24.2024C33.2161 23.8925 33.1896 23.7462 33.172 23.2728C33.1544 22.7951 33.1676 22.6531 33.2469 22.3475C33.7228 20.5185 35.6263 19.3866 37.4813 19.8385ZM36.1727 21.7149C35.9788 22.369 35.4765 22.9543 34.8728 23.2341C34.6966 23.3158 34.4851 23.3976 34.4013 23.4105L34.2515 23.4406L34.2824 23.2771C34.4278 22.524 35.1724 21.7881 36.0272 21.5514C36.1374 21.5212 36.2299 21.4954 36.2343 21.4954C36.2387 21.4911 36.2123 21.5944 36.1727 21.7149ZM37.6311 21.6805C38.2612 21.9387 38.8869 22.6703 39.0059 23.2771L39.0367 23.4406L38.8869 23.4148C38.8032 23.3976 38.5785 23.3072 38.3802 23.2126C37.7809 22.9285 37.3095 22.369 37.1156 21.7235L37.0495 21.4997L37.2522 21.5557C37.3667 21.5858 37.5342 21.6417 37.6311 21.6805ZM36.7631 22.7693C36.9217 23.0447 37.3359 23.4579 37.6796 23.6816C38.0365 23.914 38.3581 24.0431 38.8208 24.1464L39.1248 24.2153L39.0984 25.0803C39.0808 25.855 39.0631 25.9798 38.9618 26.2896C38.649 27.2407 37.803 27.882 36.7983 27.9379C36.3004 27.9637 35.9876 27.8992 35.547 27.6883C34.9565 27.3957 34.5291 26.9094 34.3264 26.2896C34.2251 25.9798 34.2075 25.855 34.1898 25.0803L34.1634 24.2153L34.4674 24.1464C35.3399 23.9528 36.0625 23.4794 36.4943 22.808C36.5648 22.7004 36.6353 22.61 36.6485 22.61C36.6617 22.61 36.7146 22.6832 36.7631 22.7693ZM32.4141 23.1738C32.4141 23.4406 32.4053 23.4751 32.3392 23.4536C32.2952 23.4406 32.0528 23.3804 31.7973 23.3201C31.5417 23.2599 31.3038 23.1996 31.2685 23.1824C31.2156 23.1609 32.185 22.8855 32.3613 22.8726C32.3965 22.8683 32.4141 22.9543 32.4141 23.1738ZM41.513 23.0146C41.8303 23.0921 42.055 23.1695 42.0197 23.1824C41.9845 23.1996 41.7465 23.2599 41.491 23.3201C41.2354 23.3804 40.9931 23.4406 40.9534 23.4536C40.8829 23.4751 40.8741 23.4406 40.8741 23.1738C40.8741 23.006 40.8873 22.8683 40.9094 22.8683C40.927 22.8683 41.2002 22.9371 41.513 23.0146ZM28.9729 24.6844C29.2989 25.5881 29.5016 26.1993 29.4796 26.2337C29.4091 26.3456 28.1753 27.882 28.1445 27.8949C28.1313 27.8992 27.911 27.2493 27.6598 26.4532C27.4087 25.6527 27.1927 24.9727 27.1839 24.9426C27.1663 24.9039 27.2632 24.891 27.5673 24.891C27.7876 24.891 28.0079 24.8737 28.052 24.8479C28.1665 24.7877 28.2106 24.6155 28.2943 23.9011C28.3648 23.29 28.3912 23.1394 28.4221 23.1738C28.4309 23.1824 28.6776 23.8624 28.9729 24.6844ZM30.9953 23.8839L32.5507 24.2669L32.586 24.396C32.6168 24.5122 32.5992 24.5424 32.4053 24.7145C32.1454 24.9426 31.9647 25.1879 31.8325 25.4978C31.7532 25.6914 31.7312 25.8421 31.7135 26.3843L31.6871 27.0385L30.9777 26.5349L30.2639 26.0314L29.9026 25.0201C29.6999 24.4649 29.4928 23.8882 29.4355 23.7376C29.3694 23.5611 29.3518 23.4708 29.3871 23.4837C29.4135 23.4966 30.1405 23.6773 30.9953 23.8839ZM32.9869 25.274C32.9869 25.2955 33.0971 25.459 33.2337 25.6312L33.476 25.9453L33.4584 26.9137C33.4408 27.9035 33.3967 28.1918 33.2689 28.1445C33.2337 28.1316 33.031 27.9939 32.8107 27.8389L32.4141 27.5506V26.9653C32.4141 26.0529 32.4802 25.7603 32.7754 25.3945C32.9032 25.2396 32.9869 25.1922 32.9869 25.274ZM40.5128 25.3945C40.8389 25.8033 40.8741 26.0142 40.8741 27.6582V28.9407L40.7772 28.9105C40.5833 28.8546 40.4291 28.7599 40.2572 28.5921C39.8915 28.2349 39.8166 27.925 39.8166 26.7415V25.9453L40.059 25.6312C40.1911 25.459 40.3013 25.2955 40.3013 25.274C40.3013 25.1922 40.385 25.2396 40.5128 25.3945ZM31.8501 28.0756L33.6655 29.3667H34.3353H35.0006L35.3795 29.9821C35.5866 30.3221 35.7629 30.6191 35.7717 30.6449C35.7805 30.6707 34.7935 31.596 33.5818 32.6977L31.3787 34.7075L31.3566 34.1782L31.3346 33.6445L29.647 31.5056L27.9638 29.3667L28.9861 28.0756C29.5501 27.3655 30.0171 26.7845 30.0215 26.7845C30.0304 26.7845 30.8499 27.3655 31.8501 28.0756ZM34.7627 28.0928C34.8684 28.1617 34.8816 28.1961 34.8816 28.4027V28.6351H34.4146C33.9872 28.6351 33.9475 28.6308 33.9783 28.5576C34.1061 28.2736 34.1722 28.024 34.1766 27.8217V27.5893L34.4102 27.8045C34.5335 27.9207 34.6922 28.0498 34.7627 28.0928ZM39.2394 28.407L39.3319 28.6351H38.8693H38.4066V28.4027C38.4066 28.1875 38.4154 28.166 38.5741 28.0627C38.6666 27.9982 38.8208 27.8691 38.9133 27.7744L39.0896 27.5979L39.116 27.8906C39.1336 28.0498 39.1865 28.2865 39.2394 28.407ZM36.6441 28.6738C36.9437 28.6738 37.2125 28.648 37.4064 28.5964L37.7016 28.5232V28.6738C37.7016 28.8159 37.6443 28.8847 37.0319 29.4829L36.3621 30.1371L35.9744 29.5044C35.6571 28.988 35.5866 28.8417 35.5866 28.6954V28.5232L35.8862 28.5964C36.0757 28.648 36.3445 28.6738 36.6441 28.6738ZM39.8607 29.427C40.7419 29.5862 41.4337 30.15 41.7421 30.9591L41.8347 31.1957L41.2795 32.6073C40.8917 33.5843 40.7111 33.9974 40.689 33.9415C40.6758 33.8984 40.5613 33.0979 40.4379 32.1641C40.3145 31.2302 40.1911 30.391 40.1647 30.3006C40.1074 30.0897 39.9003 29.9864 39.6888 30.0596C39.5214 30.1155 39.4641 30.2102 39.4641 30.4297C39.4641 30.5201 39.6051 31.6132 39.7725 32.8526C39.9444 34.0921 40.081 35.1249 40.081 35.1422C40.081 35.1594 39.2879 35.1766 38.3141 35.1766C36.9173 35.1766 36.5516 35.1637 36.5692 35.1206C36.5824 35.0948 37.0803 34.049 37.6752 32.8053C38.7459 30.5631 38.8208 30.3781 38.7151 30.1844C38.6446 30.0596 38.4242 30.0036 38.2568 30.0725C38.1246 30.1285 38.0409 30.2877 36.9085 32.6547L35.7012 35.1766H33.8594C32.8459 35.1766 32.0176 35.168 32.0176 35.1594C32.0176 35.1508 33.1412 34.1179 34.5203 32.8612C35.8951 31.6089 37.2962 30.3049 37.6355 29.9735L38.2524 29.3667H38.8913C39.2438 29.371 39.68 29.3968 39.8607 29.427ZM45.2363 31.4626C45.2363 31.4841 45.1526 31.7165 45.0512 31.979C44.8662 32.461 44.8618 32.4653 44.7208 32.4653C44.2537 32.4653 43.6236 32.9387 43.4341 33.4336C43.3196 33.7349 43.3019 34.2427 43.4033 34.5138C43.4738 34.7075 43.6633 35.0217 43.7382 35.069C43.888 35.1594 43.6809 35.1766 42.4383 35.1766C41.6981 35.1766 41.0944 35.168 41.0944 35.1594C41.0944 35.1422 42.4295 31.738 42.5353 31.4841C42.5529 31.4454 42.8657 31.4324 43.8968 31.4324C44.6326 31.4324 45.2363 31.4454 45.2363 31.4626ZM45.3024 33.2701C45.6108 33.4207 45.765 33.6746 45.765 34.0189C45.765 34.4751 45.3993 34.8323 44.9278 34.8323C44.452 34.8323 44.0907 34.4751 44.0907 34.0103C44.0951 33.3863 44.7384 32.9904 45.3024 33.2701Z" fill="#A85DA0"/>
<circle cx="35.4999" cy="68.1434" r="2.85632" fill="#A85DA0"/>
<defs>
<filter id="filter0_d_2753_5360" x="11.7832" y="5.62695" width="47.0581" height="47.0586" filterUnits="userSpaceOnUse" color-interpolation-filters="sRGB">
<feFlood flood-opacity="0" result="BackgroundImageFix"/>
<feColorMatrix in="SourceAlpha" type="matrix" values="0 0 0 0 0 0 0 0 0 0 0 0 0 0 0 0 0 0 127 0" result="hardAlpha"/>
<feOffset dy="4"/>
<feGaussianBlur stdDeviation="3.5"/>
<feComposite in2="hardAlpha" operator="out"/>
<feColorMatrix type="matrix" values="0 0 0 0 0 0 0 0 0 0 0 0 0 0 0 0 0 0 0.15 0"/>
<feBlend mode="normal" in2="BackgroundImageFix" result="effect1_dropShadow_2753_5360"/>
<feBlend mode="normal" in="SourceGraphic" in2="effect1_dropShadow_2753_5360" result="shape"/>
</filter>
<linearGradient id="paint0_linear_2753_5360" x1="35.5001" y1="0.808594" x2="35.5001" y2="60.8811" gradientUnits="userSpaceOnUse">
<stop stop-color="white"/>
<stop offset="1" stop-color="white" stop-opacity="0"/>
</linearGradient>
</defs>
</svg>
