<svg width="71" height="71" viewBox="0 0 71 71" fill="none" xmlns="http://www.w3.org/2000/svg">
<path d="M35.5001 1.625C42.0571 1.625 48.3455 4.22976 52.982 8.86626C57.6185 13.5028 60.2233 19.7912 60.2233 26.3482C60.2233 36.7954 52.8824 48.1807 38.3908 60.626C37.585 61.3182 36.5576 61.6984 35.4953 61.6975C34.433 61.6965 33.4063 61.3145 32.6018 60.6209L31.6432 59.7892C17.7932 47.6685 10.7769 36.5621 10.7769 26.3482C10.7769 19.7912 13.3816 13.5028 18.0181 8.86626C22.6546 4.22976 28.9431 1.625 35.5001 1.625Z" fill="#AC6454"/>
<path d="M38.065 60.2467L38.065 60.2467C37.35 60.8609 36.4384 61.1983 35.4958 61.1975C34.5532 61.1966 33.6423 60.8577 32.9284 60.2424C32.9283 60.2423 32.9283 60.2423 32.9282 60.2422L31.9725 59.4129C31.9722 59.4126 31.9718 59.4123 31.9715 59.412C18.1466 47.3131 11.2769 36.3347 11.2769 26.3482C11.2769 19.9238 13.8289 13.7625 18.3717 9.21981C22.9144 4.67708 29.0757 2.125 35.5001 2.125C41.9245 2.125 48.0857 4.67708 52.6285 9.21981C57.1712 13.7625 59.7233 19.9238 59.7233 26.3482C59.7233 36.5639 52.534 47.8208 38.065 60.2467Z" stroke="url(#paint0_linear_2729_6654)" stroke-opacity="0.7"/>
<g filter="url(#filter0_d_2729_6654)">
<circle cx="35.3123" cy="25.9725" r="16.5291" fill="white"/>
</g>
<path d="M28.8204 14.0057C28.1487 14.2184 27.6085 14.7546 27.3783 15.4296C27.2844 15.7024 27.2797 15.8133 27.2797 17.8151V19.914L27.0073 20.1267C26.514 20.5058 26.1758 21.0328 26.0067 21.6754C25.9222 22.0036 25.9175 22.2163 25.9175 25.7761C25.9175 29.5069 25.9175 29.53 26.0161 29.6549C26.143 29.812 26.4201 29.8259 26.5563 29.678C26.6409 29.5855 26.6456 29.4329 26.6691 25.7345L26.6925 21.8927L26.8006 21.6292C27.026 21.0836 27.5146 20.6028 28.0642 20.3809L28.3366 20.2746H35.5H42.6634L42.9312 20.3809C43.4901 20.6028 43.9787 21.0836 44.1947 21.6246C44.2981 21.8788 44.3075 21.9759 44.331 23.2611C44.3544 24.5278 44.3591 24.6434 44.4437 24.7313C44.5705 24.87 44.8477 24.8607 44.9792 24.722C45.0825 24.6157 45.0825 24.5833 45.0825 23.3166C45.0825 22.1886 45.0731 21.9805 44.9933 21.6754C44.8242 21.0328 44.486 20.5058 43.9927 20.1267L43.7203 19.914V17.8197C43.7203 15.8965 43.7109 15.707 43.6311 15.4481C43.415 14.7685 42.8231 14.1906 42.1279 13.9918C41.8977 13.9271 41.1791 13.9179 35.4812 13.9225C29.4452 13.9225 29.0741 13.9271 28.8204 14.0057ZM42.034 14.7546C42.3769 14.9165 42.6352 15.1476 42.809 15.4527L42.9452 15.6978L42.9593 17.6487L42.9734 19.5996L42.7949 19.5673C42.5648 19.5257 28.4399 19.5257 28.2098 19.5673L28.0313 19.5996V17.6903V15.781L28.1722 15.499C28.4071 15.0459 28.8392 14.7269 29.323 14.6576C29.4499 14.6391 32.3058 14.6252 35.6644 14.6298L41.7709 14.6344L42.034 14.7546Z" fill="#AC6454"/>
<path d="M29.0413 15.5132L28.9238 15.6242V17.085V18.5459L29.046 18.6661C29.1446 18.7632 29.1963 18.7771 29.3372 18.7586C29.6284 18.7078 29.6519 18.6569 29.666 17.9866L29.6848 17.3855H30.2156H30.7464L30.7652 17.9866C30.7793 18.6569 30.8028 18.7078 31.094 18.7586C31.2349 18.7771 31.2866 18.7632 31.3852 18.6661L31.5074 18.5459V17.0666V15.5872L31.3852 15.4947C31.2302 15.3745 31.0329 15.3699 30.892 15.4855C30.7887 15.5687 30.7793 15.6103 30.7652 16.1096L30.7464 16.6459H30.2109H29.6754V16.1373C29.6754 15.6565 29.6707 15.6195 29.558 15.5132C29.4875 15.4392 29.3889 15.3976 29.2996 15.3976C29.2104 15.3976 29.1117 15.4392 29.0413 15.5132Z" fill="#AC6454"/>
<path d="M33.0434 15.4853C32.5502 15.6471 32.1509 16.04 31.9724 16.5393C31.8315 16.9231 31.8644 17.4501 32.0429 17.8014C32.414 18.5319 33.2125 18.9017 33.997 18.7076C35.2418 18.3978 35.7115 16.9184 34.866 15.9661C34.4291 15.476 33.6776 15.2772 33.0434 15.4853ZM34.1097 16.3082C34.7251 16.7335 34.6687 17.5703 34.0017 17.9031C33.8608 17.9771 33.6917 18.0326 33.6259 18.0326C32.9495 18.0326 32.4563 17.3391 32.7099 16.7474C32.9448 16.1834 33.6259 15.9707 34.1097 16.3082Z" fill="#AC6454"/>
<path d="M35.4482 15.4854C35.3636 15.5501 35.3354 15.6195 35.3354 15.7674C35.3354 16.0356 35.467 16.1373 35.8099 16.1373H36.0635V17.3393V18.5459L36.1857 18.6661C36.2843 18.7632 36.336 18.7771 36.4769 18.7539C36.8104 18.7031 36.8151 18.68 36.8151 17.3347V16.1373H37.0547C37.3459 16.1373 37.4445 16.091 37.5197 15.9061C37.5902 15.7443 37.5197 15.5178 37.3741 15.4438C37.3271 15.4161 36.8997 15.3976 36.4252 15.3976C35.6455 15.3976 35.5468 15.4068 35.4482 15.4854Z" fill="#AC6454"/>
<path d="M40.5214 15.4854L40.4087 15.5733L40.3946 16.9972C40.3805 18.5136 40.3946 18.6291 40.6012 18.7216C40.667 18.7493 40.9629 18.7725 41.2824 18.7725C41.8178 18.7725 41.8507 18.7678 41.9588 18.6569C42.1138 18.5089 42.1185 18.2732 41.9682 18.1345C41.8742 18.0466 41.8038 18.0328 41.4984 18.0328H41.1367V16.8123V15.5872L41.0146 15.4947C40.8596 15.3745 40.6623 15.3699 40.5214 15.4854Z" fill="#AC6454"/>
<path d="M38.1306 15.5363C38.0413 15.6241 38.0366 15.6889 38.0366 17.1035V18.5829L38.1588 18.6754C38.2715 18.7632 38.3466 18.7725 38.9526 18.7725C39.5586 18.7725 39.6337 18.7632 39.7464 18.6754C39.9015 18.5552 39.9202 18.2685 39.7746 18.1252C39.6948 18.0466 39.6196 18.0328 39.2344 18.0328H38.7882V17.7554V17.478H39.1687C39.5257 17.478 39.5539 17.4688 39.6901 17.3393C39.8075 17.2191 39.8263 17.1729 39.8028 17.048C39.7558 16.7984 39.629 16.7383 39.1828 16.7383H38.7882V16.4378V16.1373H39.2485C39.6384 16.1373 39.7277 16.1234 39.7887 16.0541C39.8874 15.9478 39.8921 15.6796 39.7934 15.5455C39.723 15.4485 39.6948 15.4438 38.9714 15.4438C38.2856 15.4438 38.2151 15.4531 38.1306 15.5363Z" fill="#AC6454"/>
<path d="M28.7453 22.2673C28.4776 22.3644 28.1535 22.6926 28.0595 22.9654C27.9985 23.1411 27.9844 23.4046 27.9844 24.4309C27.9844 25.6468 27.9891 25.6884 28.0971 25.9149C28.2239 26.1831 28.4024 26.3726 28.6655 26.5113C28.8393 26.5992 28.9238 26.6084 29.7224 26.6084C30.4786 26.6084 30.6102 26.5992 30.7558 26.5206C30.986 26.4004 31.2161 26.1785 31.3336 25.9612C31.4322 25.7855 31.4369 25.7208 31.4369 24.4124C31.4369 23.0995 31.4322 23.0394 31.3336 22.8591C31.2067 22.6279 30.9813 22.4106 30.7605 22.2997C30.5256 22.1841 29.0507 22.161 28.7453 22.2673ZM30.5491 23.0902L30.7088 23.2474V24.4078V25.5682L30.5726 25.7161L30.4364 25.8687L29.7506 25.8826L29.0601 25.8964L28.9004 25.7393L28.7359 25.5775V24.4402C28.7359 23.7328 28.7547 23.2659 28.7876 23.1966C28.891 22.9747 29.0366 22.9377 29.7412 22.933H30.3894L30.5491 23.0902Z" fill="#AC6454"/>
<path d="M34.5842 22.2535C34.1991 22.4014 33.9454 22.6557 33.8186 23.0209C33.781 23.1272 33.7622 23.5941 33.7622 24.4309C33.7622 25.5913 33.7716 25.6977 33.8609 25.8918C33.9783 26.1461 34.1944 26.3772 34.4433 26.5067C34.6171 26.5992 34.697 26.6084 35.5002 26.6084C36.4867 26.6084 36.5947 26.5807 36.9188 26.2247C37.2288 25.8872 37.2429 25.7947 37.2288 24.3431C37.2147 22.9099 37.2006 22.8545 36.8859 22.5401C36.59 22.2488 36.4585 22.2165 35.5472 22.2072C34.9929 22.2026 34.6782 22.2165 34.5842 22.2535ZM36.3269 23.0902L36.4866 23.2474V24.4124V25.5775L36.3269 25.7346L36.1672 25.8918H35.5002H34.8332L34.6735 25.7346L34.5138 25.5775V24.4124V23.2474L34.6735 23.0902L34.8332 22.933H35.5002H36.1672L36.3269 23.0902Z" fill="#AC6454"/>
<path d="M40.3619 22.2488C40.2116 22.2997 39.9297 22.4892 39.8311 22.6094C39.7982 22.6464 39.7184 22.7851 39.6526 22.9192L39.5352 23.1596L39.5492 24.4679C39.5633 25.7069 39.568 25.7855 39.6667 25.9612C39.7841 26.1785 40.0143 26.4004 40.2445 26.5206C40.3901 26.5992 40.5216 26.6084 41.2779 26.6084C42.2455 26.6084 42.3582 26.5807 42.6777 26.257C42.983 25.9473 42.9924 25.9103 43.0065 24.4864C43.0206 23.0255 42.9971 22.8868 42.6918 22.5771C42.3723 22.2488 42.2549 22.2165 41.3248 22.2072C40.8269 22.2026 40.4464 22.2165 40.3619 22.2488ZM42.1046 23.0902L42.2643 23.2474V24.4124V25.5775L42.1046 25.7346L41.9449 25.8918H41.2779H40.6108L40.4511 25.7346L40.2914 25.5775V24.4124V23.2474L40.4511 23.0902L40.6108 22.933H41.2779H41.9449L42.1046 23.0902Z" fill="#AC6454"/>
<path d="M44.4907 25.5586C44.3357 25.6603 44.331 25.7713 44.331 29.7934V33.797H41.2778H38.2292L38.2151 31.564C38.201 29.3588 38.201 29.3357 38.093 29.123C37.938 28.8133 37.7031 28.5636 37.4213 28.4111L37.1676 28.2724H35.5001H33.8325L33.5789 28.4111C33.297 28.5636 33.0621 28.8133 32.9071 29.123C32.7991 29.3357 32.7991 29.3588 32.785 31.564L32.7709 33.797H29.7224H26.6691V32.2436C26.6691 31.3421 26.6503 30.6579 26.6221 30.6117C26.5986 30.5654 26.5141 30.5007 26.4342 30.4683C26.2698 30.399 26.0397 30.4683 25.9645 30.6117C25.9363 30.6579 25.9175 31.356 25.9175 32.2852V33.8756L25.7155 33.9541C25.3914 34.0743 25.0063 34.4488 24.8278 34.8048C24.6774 35.1099 24.6727 35.1284 24.6587 35.8635C24.6446 36.4552 24.654 36.6587 24.7103 36.8251C24.8184 37.1256 25.0016 37.3336 25.274 37.4723L25.5136 37.5879H35.5001H45.4865L45.7261 37.4723C45.9986 37.3336 46.1817 37.1256 46.2898 36.8251C46.3462 36.6587 46.3555 36.4552 46.3415 35.8635C46.3274 35.1284 46.3227 35.1099 46.1724 34.8048C45.9939 34.4488 45.6087 34.0743 45.2846 33.9541L45.0826 33.8756V29.8026C45.0826 25.762 45.0826 25.7251 44.9886 25.6233C44.89 25.5216 44.6034 25.4847 44.4907 25.5586ZM36.8106 28.9936C37.083 29.0537 37.2662 29.1877 37.379 29.405C37.4682 29.5761 37.4729 29.687 37.4729 31.6935V33.797H35.5001H33.5272V31.6935C33.5272 29.687 33.5319 29.5761 33.6211 29.405C33.7292 29.1924 33.9499 29.0306 34.1801 28.9843C34.4479 28.9335 36.5804 28.9381 36.8106 28.9936ZM44.9698 34.6476C45.2423 34.7724 45.4678 35.0175 45.5476 35.2717C45.6134 35.4983 45.6134 36.483 45.5476 36.6309C45.4302 36.8852 46.0314 36.8713 35.5001 36.8713C24.9687 36.8713 25.5699 36.8852 25.4525 36.6309C25.3867 36.483 25.3867 35.4983 25.4525 35.2717C25.5324 35.0175 25.7578 34.7724 26.0303 34.6476L26.2698 34.5367H35.5001H44.7303L44.9698 34.6476Z" fill="#AC6454"/>
<path d="M28.6373 28.3738C28.3555 28.5172 28.1112 28.7992 28.0313 29.0719C28.0032 29.169 27.9844 29.7746 27.9844 30.4912C27.9844 31.7025 27.9891 31.7487 28.0971 31.9706C28.1535 32.1 28.285 32.2711 28.3836 32.3589C28.7125 32.6409 28.8111 32.6641 29.7224 32.6641C30.4927 32.6641 30.5585 32.6548 30.7699 32.5531C31.0423 32.419 31.2913 32.1463 31.3852 31.8643C31.4933 31.5591 31.4933 29.3354 31.3899 29.0303C31.2866 28.7391 31.0799 28.5079 30.7934 28.3692C30.5585 28.2536 30.5162 28.249 29.7224 28.249C28.9097 28.249 28.8863 28.2536 28.6373 28.3738ZM30.3471 28.9933C30.4693 29.0257 30.5538 29.0904 30.6149 29.1875C30.6994 29.3216 30.7088 29.4279 30.7088 30.4357C30.7088 31.6701 30.69 31.7626 30.4035 31.8828C30.1874 31.9706 29.262 31.9706 29.046 31.8828C28.7406 31.7579 28.7359 31.7302 28.7359 30.4404C28.7359 29.3354 28.7406 29.2707 28.8346 29.1551C28.8863 29.0904 28.999 29.0164 29.0788 28.9933C29.2902 28.9332 30.131 28.9332 30.3471 28.9933Z" fill="#AC6454"/>
<path d="M40.2071 28.3692C40.0708 28.4339 39.9017 28.5634 39.8219 28.6558C39.5635 28.9656 39.54 29.1135 39.54 30.445C39.54 31.7811 39.5635 31.9244 39.8266 32.2387C39.9064 32.3358 40.0802 32.4699 40.2165 32.5392C40.4513 32.6594 40.4748 32.6641 41.278 32.6641C42.1846 32.6641 42.288 32.6409 42.6121 32.3636C42.706 32.2803 42.8329 32.1232 42.8892 32.0215C42.9879 31.8412 42.9926 31.7672 43.0067 30.5513C43.0161 29.733 43.002 29.206 42.9691 29.0858C42.8939 28.8038 42.6497 28.5218 42.3631 28.3738C42.1142 28.2536 42.0907 28.249 41.278 28.249C40.4842 28.249 40.4419 28.2536 40.2071 28.3692ZM41.8981 28.9887C41.992 29.0164 42.1142 29.0904 42.1705 29.1598C42.2598 29.2707 42.2645 29.3401 42.2645 30.4404C42.2645 31.7302 42.2598 31.7579 41.9545 31.8828C41.7384 31.9706 40.813 31.9706 40.5969 31.8828C40.3104 31.7626 40.2916 31.6701 40.2916 30.4357C40.2916 28.9563 40.2916 28.9563 41.2546 28.9471C41.5129 28.9425 41.8041 28.9656 41.8981 28.9887Z" fill="#AC6454"/>
<circle cx="35.4999" cy="68.1434" r="2.85632" fill="#AC6454"/>
<defs>
<filter id="filter0_d_2729_6654" x="11.7832" y="6.44336" width="47.0581" height="47.0586" filterUnits="userSpaceOnUse" color-interpolation-filters="sRGB">
<feFlood flood-opacity="0" result="BackgroundImageFix"/>
<feColorMatrix in="SourceAlpha" type="matrix" values="0 0 0 0 0 0 0 0 0 0 0 0 0 0 0 0 0 0 127 0" result="hardAlpha"/>
<feOffset dy="4"/>
<feGaussianBlur stdDeviation="3.5"/>
<feComposite in2="hardAlpha" operator="out"/>
<feColorMatrix type="matrix" values="0 0 0 0 0 0 0 0 0 0 0 0 0 0 0 0 0 0 0.15 0"/>
<feBlend mode="normal" in2="BackgroundImageFix" result="effect1_dropShadow_2729_6654"/>
<feBlend mode="normal" in="SourceGraphic" in2="effect1_dropShadow_2729_6654" result="shape"/>
</filter>
<linearGradient id="paint0_linear_2729_6654" x1="35.5001" y1="1.625" x2="35.5001" y2="61.6975" gradientUnits="userSpaceOnUse">
<stop stop-color="white"/>
<stop offset="1" stop-color="white" stop-opacity="0"/>
</linearGradient>
</defs>
</svg>
