<svg width="71" height="71" viewBox="0 0 71 71" fill="none" xmlns="http://www.w3.org/2000/svg">
<path d="M35.5001 0.808594C42.0571 0.808594 48.3455 3.41335 52.982 8.04986C57.6185 12.6864 60.2233 18.9748 60.2233 25.5318C60.2233 35.9789 52.8824 47.3643 38.3908 59.8096C37.585 60.5018 36.5576 60.882 35.4953 60.881C34.433 60.8801 33.4063 60.4981 32.6018 59.8045L31.6432 58.9728C17.7932 46.8521 10.7769 35.7457 10.7769 25.5318C10.7769 18.9748 13.3816 12.6864 18.0181 8.04986C22.6546 3.41335 28.9431 0.808594 35.5001 0.808594Z" fill="#717D4C"/>
<path d="M38.065 59.4303L38.065 59.4303C37.35 60.0445 36.4384 60.3819 35.4958 60.381C34.5532 60.3802 33.6423 60.0413 32.9284 59.426C32.9283 59.4259 32.9283 59.4259 32.9282 59.4258L31.9725 58.5965C31.9722 58.5962 31.9718 58.5959 31.9715 58.5956C18.1466 46.4967 11.2769 35.5183 11.2769 25.5318C11.2769 19.1074 13.8289 12.9461 18.3717 8.40341C22.9144 3.86068 29.0757 1.30859 35.5001 1.30859C41.9245 1.30859 48.0857 3.86068 52.6285 8.40341C57.1712 12.9461 59.7233 19.1074 59.7233 25.5318C59.7233 35.7475 52.534 47.0044 38.065 59.4303Z" stroke="url(#paint0_linear_2729_9861)" stroke-opacity="0.7"/>
<g filter="url(#filter0_d_2729_9861)">
<ellipse cx="35.3123" cy="25.1561" rx="16.5291" ry="16.5291" fill="white"/>
</g>
<path d="M31.0301 13.9327C31.869 14.1006 32.6176 14.5095 33.2413 15.1423C33.7662 15.6761 34.1275 16.3262 34.3297 17.0924C34.4244 17.4454 34.4416 17.5961 34.4373 18.1299C34.4373 18.9176 34.3254 19.3955 33.9813 20.0799L33.749 20.5448L34.0759 20.9107C34.2523 21.1087 34.4201 21.2723 34.4459 21.2723C34.5663 21.2723 37.2077 20.3597 37.3282 20.2779C37.4013 20.2263 37.6723 19.8733 37.9347 19.4729C38.6618 18.3666 38.9027 18.1729 39.591 18.1385C40.0513 18.1169 40.3481 18.2159 40.6665 18.5044C40.9332 18.7411 41.0106 18.8961 41.2515 19.6021C41.3505 19.9077 41.4752 20.2091 41.5226 20.2779C41.5785 20.3554 41.8065 20.5018 42.1291 20.6697C42.8863 21.0614 42.9637 21.169 43.3552 22.3485C43.6262 23.1621 43.6563 23.1966 44.4952 23.528C44.8393 23.6658 45.2007 23.838 45.2953 23.9111C45.4373 24.0231 46.2977 25.0907 46.444 25.3446C46.4655 25.3834 46.388 25.4695 46.1901 25.6201C46.031 25.7364 45.889 25.8354 45.8761 25.8354C45.8632 25.8311 45.6782 25.5943 45.4631 25.3059C44.8479 24.4708 44.8867 24.5009 44.1295 24.1996C43.467 23.9327 43.2648 23.8164 43.0626 23.5711C42.9078 23.386 42.8518 23.2525 42.6238 22.5638C42.3313 21.6641 42.2969 21.6167 41.7936 21.3627C40.9891 20.9581 40.8256 20.7644 40.5374 19.8862C40.3266 19.2405 40.2363 19.0898 39.9782 18.9564C39.7416 18.8358 39.5824 18.8358 39.3458 18.9521C39.178 19.0339 39.0877 19.1458 38.6015 19.8733C38.0638 20.674 37.8874 20.8763 37.5906 21.0227C37.5175 21.0614 36.9195 21.268 36.257 21.4876C35.5945 21.7071 35.0395 21.8965 35.018 21.9051C35.0008 21.9137 35.1041 22.0558 35.2503 22.2151L35.5128 22.5078L35.7106 22.4518C35.9343 22.383 36.4506 22.3743 36.6614 22.4346C36.799 22.4734 36.8162 22.4647 37.0528 22.2237C37.1862 22.0859 37.4056 21.9223 37.5347 21.8578C38.18 21.5435 38.9672 21.6382 39.5222 22.0988C39.7329 22.271 39.9911 22.6671 40.0599 22.9211C40.1115 23.0975 40.133 23.1191 40.3094 23.1707C40.5503 23.2353 40.9504 23.4936 41.1096 23.6787C41.273 23.8767 41.4236 24.1479 41.4881 24.3631L41.5398 24.5439L41.7376 24.5181C42.185 24.4579 42.7572 24.6602 43.1315 25.0089C43.3251 25.194 43.3853 25.2241 43.5832 25.2456C44.2242 25.3188 44.8178 25.8182 45.0286 26.4682C45.0802 26.6231 45.1276 26.6963 45.1749 26.6963C45.2136 26.6963 45.3556 26.748 45.4846 26.8083C46.1514 27.1182 46.5171 27.6993 46.5171 28.4484L46.5171 28.8057L46.1514 28.8057L45.7858 28.8057L45.7858 28.5517C45.7858 27.8715 45.3857 27.4497 44.6888 27.398L44.3661 27.3722L44.3661 27.1268C44.3661 26.6533 44.1811 26.3261 43.8026 26.1152C43.5961 25.999 43.5316 25.986 43.2433 25.9947L42.9164 26.0033L42.8217 25.8354C42.6152 25.4695 42.2152 25.2499 41.8108 25.2844C41.6301 25.3016 41.4881 25.3532 41.1569 25.547C40.9246 25.6804 40.7267 25.7794 40.7181 25.7708C40.7095 25.7622 40.7267 25.5814 40.7525 25.3662C40.7826 25.1552 40.7955 24.884 40.7869 24.7635C40.7568 24.4665 40.5718 24.1737 40.3051 24.0059C40.1201 23.8939 40.0427 23.8767 39.7372 23.8638L39.3845 23.8466L39.3673 23.4936C39.3544 23.1879 39.3372 23.1105 39.2253 22.9254C39.0446 22.6412 38.7607 22.4691 38.4252 22.4432C37.8917 22.4045 37.5045 22.6929 37.311 23.274C37.2593 23.429 37.2034 23.5539 37.1819 23.5539C37.1647 23.5539 37.0313 23.4764 36.8894 23.3817C36.4377 23.076 36.0548 23.0588 35.6504 23.3214C35.4396 23.4591 35.3063 23.6443 35.1815 23.9929C35.1213 24.1479 35.0567 24.2598 35.0266 24.2512C35.0008 24.2426 34.8933 24.1823 34.79 24.1092C34.5147 23.9198 34.3297 23.8552 34.0845 23.8552C33.5898 23.8552 33.2327 24.1436 33.0477 24.7032C33.0004 24.8496 32.9402 24.9744 32.923 24.9744C32.9015 24.9744 32.7638 24.8969 32.6176 24.8022C32.1572 24.5052 31.8604 24.4794 31.4474 24.7075C31.2022 24.8367 31.0431 25.0519 30.9054 25.435C30.8409 25.6072 30.7892 25.6933 30.7548 25.6761C30.729 25.6589 30.6086 25.5857 30.4924 25.5125C30.2128 25.336 30.0321 25.2758 29.7869 25.2758C29.3524 25.2801 28.9953 25.5685 28.8017 26.0764C28.7372 26.2529 28.6684 26.395 28.6512 26.395C28.6297 26.395 28.535 26.339 28.4361 26.2702C28.0833 26.0291 27.9715 25.9903 27.623 25.9903L27.2875 25.986L27.1498 25.7708C26.7927 25.2327 26.0829 25.1165 25.6097 25.5211C25.3559 25.7407 25.257 25.9645 25.2311 26.3606L25.2096 26.6963L24.8483 26.6963L24.4826 26.6963L24.4998 26.2529C24.5213 25.7105 24.6332 25.435 24.9816 25.0691C25.1924 24.8496 25.244 24.7549 25.4333 24.2555C25.5495 23.9499 25.6871 23.6141 25.7388 23.5151C25.8764 23.2439 26.1819 22.9598 26.4959 22.8134C26.754 22.6929 26.8616 22.6757 27.9672 22.5595C28.6254 22.4949 29.2104 22.4217 29.2707 22.4002C29.3653 22.3614 29.361 22.3571 29.1803 22.3098C28.3414 22.0945 27.6832 21.7071 27.081 21.0829C26.5045 20.4803 26.1432 19.7829 25.9711 18.9435C25.8635 18.4054 25.9022 17.4626 26.0571 16.946C26.526 15.392 27.7908 14.2297 29.3438 13.9284C29.7353 13.8552 30.6516 13.8552 31.0301 13.9327ZM29.5589 14.6602C28.2124 14.9271 27.1842 15.8526 26.7884 17.1613C26.6895 17.4927 26.6723 17.6305 26.668 18.1083C26.668 18.7024 26.7153 18.9693 26.9175 19.4729C27.253 20.3038 27.9887 21.0356 28.8448 21.3929C29.1373 21.5134 29.8901 21.6985 29.9289 21.6555C29.9375 21.6468 30.1009 21.3283 30.2902 20.9495C30.6903 20.1531 30.8925 19.9163 31.3313 19.7054C31.5679 19.5935 31.6711 19.5676 31.9981 19.559C32.424 19.5418 32.7165 19.6193 33.0305 19.8345C33.1811 19.9379 33.194 19.9379 33.2499 19.8647C33.3446 19.7398 33.5726 19.1199 33.6414 18.7971C33.7189 18.4269 33.693 17.6305 33.5941 17.2474C33.4995 16.8987 33.2628 16.4079 33.0348 16.0894C32.2433 14.9831 30.8452 14.4105 29.5589 14.6602ZM31.826 20.3296C31.4646 20.42 31.327 20.5922 30.8323 21.578C30.3676 22.5121 30.2171 22.7273 29.8772 22.9469C29.5804 23.1363 29.2793 23.1966 28.0704 23.3171C26.8659 23.4333 26.7755 23.4591 26.5217 23.7476C26.3927 23.8939 26.1345 24.4492 26.1776 24.4794C26.1862 24.4837 26.3324 24.5052 26.5045 24.531C26.8917 24.5913 27.21 24.742 27.5069 25.0089C27.7005 25.1854 27.7693 25.2155 28.0145 25.2585L28.2941 25.3059L28.5307 25.0605C28.9609 24.6257 29.5202 24.4406 30.1138 24.5396L30.4279 24.5913L30.6602 24.3502C30.9957 24.0102 31.3657 23.8423 31.8475 23.8207C32.0497 23.8121 32.2906 23.8251 32.3766 23.8466C32.5401 23.8939 32.5444 23.8939 32.7853 23.6443C33.2241 23.2009 33.7791 23.0201 34.3856 23.1191C34.6954 23.175 34.7083 23.1707 34.7814 23.0803C34.8244 23.0287 34.8589 22.9727 34.8589 22.9555C34.8589 22.9211 33.1897 21.0571 32.824 20.6826C32.467 20.3167 32.2218 20.2306 31.826 20.3296Z" fill="#717D4C"/>
<path d="M38.9156 24.5608C39.1178 24.634 39.264 24.7675 39.3501 24.9526C39.406 25.0688 39.4189 25.2668 39.4189 25.9599C39.4189 26.9715 39.4705 27.5182 39.6125 28.0047C39.7071 28.3189 40.546 30.467 40.5976 30.5186C40.6105 30.5272 40.7611 30.4842 40.9332 30.4153L41.2472 30.2862L41.686 29.4295C42.0388 28.7279 42.1592 28.5341 42.3227 28.3835C42.8389 27.9186 43.7165 27.9917 44.1381 28.5428C44.336 28.801 44.4091 29.0852 44.4091 29.6103L44.4091 30.0537L44.6888 30.3464C45.0716 30.7554 45.0975 30.8329 45.0975 31.5389C45.0975 32.3654 45.1276 32.417 45.6567 32.5548C46.0697 32.6581 46.2762 32.8217 46.4267 33.1532C46.5085 33.334 46.5171 33.433 46.5171 34.6254L46.5171 35.9082L35.4998 35.9082L24.4826 35.9082L24.4998 35.2065C24.5127 34.5436 24.5213 34.5005 24.6332 34.281C24.6977 34.1562 24.8182 33.9797 24.8999 33.8893C25.1709 33.5922 25.1795 33.5363 25.1795 32.2836C25.1795 31.4657 25.1967 31.0696 25.244 30.8587C25.3559 30.3292 25.7517 29.7352 26.1044 29.5759C26.4271 29.4252 26.8272 29.4941 27.0853 29.7438C27.3305 29.9762 27.3477 30.0494 27.3649 30.9577C27.3735 31.4183 27.3864 31.8273 27.3993 31.8617C27.4337 31.9521 27.6789 31.6637 27.8166 31.3753C27.9887 31.0051 28.0188 30.7597 28.0188 29.6405C28.0188 28.4136 28.0618 28.108 28.3199 27.5785C28.6598 26.8897 28.9222 26.6573 29.3653 26.653C29.675 26.653 29.9676 26.8252 30.1181 27.105C30.1784 27.2126 30.1956 27.4364 30.2128 28.461C30.2343 29.5931 30.2472 29.705 30.3332 29.9246C30.4494 30.213 30.6043 30.4498 30.8495 30.7167C31.0301 30.9147 31.0387 30.919 31.1205 30.8458C31.2624 30.7167 31.4991 30.1786 31.5464 29.8815C31.5679 29.7266 31.5894 28.9173 31.5894 28.0821C31.5894 26.4033 31.5937 26.3861 31.8604 26.1493C32.196 25.8566 32.6993 25.8652 33.0004 26.1751C33.194 26.3645 33.4865 26.9457 33.6113 27.3848C33.6973 27.6689 33.7102 27.8626 33.7404 28.9775C33.7576 29.6749 33.7877 30.2948 33.8049 30.3551C33.8221 30.4153 33.8608 30.5531 33.8952 30.6607L33.9598 30.863L34.1964 30.6133L34.4373 30.3637L34.5835 28.8613C34.7298 27.4407 34.7427 27.3503 34.8546 27.148C35.1772 26.5712 35.9903 26.4808 36.442 26.9715C36.6442 27.1911 36.6528 27.2126 36.8894 28.2888L37.0701 29.1282L37.1475 28.8053C37.1905 28.6288 37.2421 28.151 37.2679 27.7507C37.2895 27.346 37.3368 26.8854 37.3755 26.7175C37.4787 26.2354 37.9132 24.9655 38.0294 24.8105C38.223 24.5522 38.6058 24.4446 38.9156 24.5608ZM38.3778 26.0159C38.0853 26.9112 38.0552 27.0748 37.9993 27.9874C37.9563 28.7924 37.8444 29.3133 37.5949 29.8944C37.5088 30.0925 37.44 30.2647 37.44 30.2819C37.44 30.3034 37.539 30.4627 37.6594 30.6392C37.9606 31.0912 37.9993 31.1988 37.9993 31.625C37.9993 31.8273 38.0165 31.9909 38.038 31.9909C38.0595 31.9909 38.1756 31.7412 38.3004 31.4356C38.5757 30.7425 38.7134 30.5229 38.9543 30.3809C39.1006 30.2948 39.4791 30.1829 39.6168 30.1829C39.6211 30.1829 39.492 29.8471 39.3286 29.4381C38.7521 28.009 38.6876 27.6904 38.6876 26.2526C38.6876 25.7145 38.6704 25.2754 38.6532 25.2754C38.636 25.2754 38.5112 25.6112 38.3778 26.0159ZM32.3207 28.4437L32.2992 30.1613L32.1874 30.4713C32.0497 30.8501 31.9163 31.0826 31.6539 31.4054L31.4517 31.6508L31.5249 31.9177C31.5722 32.0985 31.6023 32.4472 31.6195 32.9896L31.6453 33.7989L31.2495 33.7989L30.8581 33.7989L30.8581 33.0972C30.8581 32.0597 30.7634 31.7799 30.2085 31.1471C30.0278 30.9405 29.8428 30.6693 29.7396 30.4627C29.4858 29.9418 29.4384 29.6276 29.4384 28.4437C29.4384 27.8583 29.4212 27.4235 29.3997 27.4063C29.3309 27.3676 29.1846 27.5613 28.9953 27.9401L28.8147 28.3017L28.7888 29.6189C28.763 31.0783 28.7372 31.2461 28.4662 31.7842C28.3845 31.9435 28.2124 32.2061 28.079 32.3611C27.8037 32.6882 27.7779 32.6366 28.3371 32.9724C29.0513 33.4028 29.4771 34.1303 29.4814 34.9267L29.4814 35.1764L30.8796 35.1764L32.2777 35.1764L32.2777 34.776C32.2777 34.337 32.3422 34.0528 32.4928 33.8419C32.5444 33.7687 32.7853 33.5621 33.0219 33.3813C33.7318 32.8518 33.6973 32.8992 33.6973 32.4558C33.6973 32.0856 33.693 32.064 33.4865 31.6551C33.3059 31.2935 33.1897 30.9879 33.0736 30.5703C33.0564 30.51 33.0262 29.8901 33.009 29.1928C32.9832 28.2285 32.9574 27.8626 32.9015 27.6689C32.7638 27.1824 32.4971 26.6745 32.3896 26.7089C32.3551 26.7218 32.3379 27.204 32.3207 28.4437ZM35.573 27.4795C35.4697 27.5742 35.4611 27.6215 35.3321 28.9775C35.2589 29.7481 35.1686 30.4756 35.1342 30.5961C35.0869 30.7683 35.0094 30.8932 34.7771 31.1385L34.4803 31.4571L34.4631 32.2276C34.4502 32.925 34.4373 33.0197 34.3555 33.1747C34.2136 33.433 34.1447 33.4975 33.6543 33.8634C33.0305 34.324 33.0521 34.2896 33.0521 34.7717L33.0521 35.1764L33.7877 35.1678L34.5276 35.1549L34.79 34.3757C34.9406 33.9323 35.0998 33.5363 35.1643 33.4502C35.2288 33.3684 35.3751 33.2479 35.4955 33.1833C35.6805 33.0843 35.7881 33.0584 36.1451 33.0369L36.5753 33.0111L36.627 32.8604C36.6872 32.671 36.9668 32.3611 37.1389 32.2922L37.2679 32.2405L37.2679 31.8402L37.2679 31.4442L36.9238 30.919C36.7388 30.6306 36.5753 30.3594 36.5624 30.3206C36.5495 30.2819 36.4033 29.6362 36.2398 28.8914C35.9903 27.7679 35.9214 27.5225 35.844 27.4623C35.7279 27.3632 35.702 27.3632 35.573 27.4795ZM42.8734 28.9173C42.8174 28.9517 42.598 29.3305 42.3485 29.8299C42.1119 30.2948 41.8624 30.7339 41.7936 30.7984C41.6817 30.9061 40.9461 31.2591 40.8342 31.2591C40.7052 31.2591 40.916 31.3925 41.1741 31.4786C41.6903 31.6465 41.914 31.8746 42.0904 32.417C42.142 32.572 42.2023 32.727 42.2281 32.7571C42.2539 32.7916 42.5249 32.9422 42.826 33.0929C43.5875 33.476 43.6348 33.5277 43.9919 34.436L44.2887 35.1764L45.0372 35.1764L45.7858 35.1764L45.7858 34.3456C45.7858 33.377 45.7858 33.3727 45.3642 33.2608C44.8479 33.123 44.5167 32.8475 44.4091 32.473C44.3876 32.3869 44.3661 32.0468 44.3661 31.7197L44.3661 31.1256L44.1123 30.8544C43.7208 30.4325 43.6692 30.3034 43.6434 29.6749C43.6262 29.2272 43.609 29.1282 43.5359 29.0335C43.3638 28.814 43.1014 28.7666 42.8734 28.9173ZM26.2851 30.4067C26.2249 30.4842 26.1345 30.6349 26.0786 30.7425C25.9797 30.9319 25.9754 30.9792 25.9496 32.2707C25.9195 33.8075 25.9065 33.885 25.5237 34.337C25.3043 34.5952 25.2225 34.7847 25.2225 35.0343L25.2225 35.1764L26.9863 35.1764L28.7501 35.1764L28.7501 35.0774C28.7501 34.8621 28.6512 34.4618 28.5522 34.2638C28.4146 33.9883 28.1909 33.773 27.8252 33.5535C27.253 33.2134 26.9476 32.8647 26.7411 32.3094C26.6379 32.0339 26.625 31.9478 26.6121 31.1945C26.6035 30.7425 26.5863 30.3508 26.5776 30.3206C26.5432 30.2216 26.3884 30.269 26.2851 30.4067ZM39.4017 31.0051C39.2812 31.061 39.2425 31.1299 38.9887 31.7756C38.8898 32.0253 38.765 32.3008 38.7091 32.3869C38.5714 32.5935 38.2918 32.7571 37.8788 32.8604C37.3454 32.9939 37.2421 33.1015 37.4959 33.2608C37.5691 33.3081 37.6981 33.4588 37.7842 33.5965C37.896 33.7816 37.9907 33.8764 38.1584 33.9711C38.5241 34.182 38.7306 34.5436 38.7306 34.9913L38.7306 35.1764L41.101 35.1764C42.9809 35.1764 43.467 35.1635 43.4498 35.1247C43.1444 34.3499 43.0583 34.1519 42.9981 34.083C42.9551 34.0399 42.6841 33.8807 42.3872 33.7343C41.7075 33.3942 41.5742 33.2608 41.3935 32.7571C41.3204 32.5505 41.2257 32.3568 41.187 32.3223C41.1483 32.2922 40.9676 32.2104 40.7869 32.1458C40.3223 31.978 40.0986 31.7412 39.9394 31.2461C39.8577 31.0051 39.6297 30.9018 39.4017 31.0051ZM35.8182 33.8807C35.7666 33.9323 35.6504 34.2035 35.5472 34.5178C35.4439 34.8191 35.3536 35.0946 35.3407 35.1204C35.3278 35.1635 35.6031 35.1764 36.6399 35.1764L37.9562 35.1764L37.9562 35.0085C37.9562 34.7674 37.9261 34.7115 37.7412 34.6168C37.5002 34.4962 37.3196 34.324 37.2249 34.1389C37.0571 33.8161 37.0141 33.7989 36.4291 33.7989C35.9731 33.7989 35.8956 33.8075 35.8182 33.8807Z" fill="#717D4C"/>
<circle cx="35.4999" cy="68.1434" r="2.85632" fill="#717D4C"/>
<defs>
<filter id="filter0_d_2729_9861" x="11.7832" y="5.62695" width="47.0581" height="47.0586" filterUnits="userSpaceOnUse" color-interpolation-filters="sRGB">
<feFlood flood-opacity="0" result="BackgroundImageFix"/>
<feColorMatrix in="SourceAlpha" type="matrix" values="0 0 0 0 0 0 0 0 0 0 0 0 0 0 0 0 0 0 127 0" result="hardAlpha"/>
<feOffset dy="4"/>
<feGaussianBlur stdDeviation="3.5"/>
<feComposite in2="hardAlpha" operator="out"/>
<feColorMatrix type="matrix" values="0 0 0 0 0 0 0 0 0 0 0 0 0 0 0 0 0 0 0.15 0"/>
<feBlend mode="normal" in2="BackgroundImageFix" result="effect1_dropShadow_2729_9861"/>
<feBlend mode="normal" in="SourceGraphic" in2="effect1_dropShadow_2729_9861" result="shape"/>
</filter>
<linearGradient id="paint0_linear_2729_9861" x1="35.5001" y1="0.808594" x2="35.5001" y2="60.8811" gradientUnits="userSpaceOnUse">
<stop stop-color="white"/>
<stop offset="1" stop-color="white" stop-opacity="0"/>
</linearGradient>
</defs>
</svg>
