<svg width="71" height="71" viewBox="0 0 71 71" fill="none" xmlns="http://www.w3.org/2000/svg">
<path d="M35.5001 0.808594C42.0571 0.808594 48.3455 3.41335 52.982 8.04986C57.6185 12.6864 60.2233 18.9748 60.2233 25.5318C60.2233 35.9789 52.8824 47.3643 38.3908 59.8096C37.585 60.5018 36.5576 60.882 35.4953 60.881C34.433 60.8801 33.4063 60.4981 32.6018 59.8045L31.6432 58.9728C17.7932 46.8521 10.7769 35.7457 10.7769 25.5318C10.7769 18.9748 13.3816 12.6864 18.0181 8.04986C22.6546 3.41335 28.9431 0.808594 35.5001 0.808594Z" fill="#D5BD6B"/>
<path d="M38.065 59.4303L38.065 59.4303C37.35 60.0445 36.4384 60.3819 35.4958 60.381C34.5532 60.3802 33.6423 60.0413 32.9284 59.426C32.9283 59.4259 32.9283 59.4259 32.9282 59.4258L31.9725 58.5965C31.9722 58.5962 31.9718 58.5959 31.9715 58.5956C18.1466 46.4967 11.2769 35.5183 11.2769 25.5318C11.2769 19.1074 13.8289 12.9461 18.3717 8.40341C22.9144 3.86068 29.0757 1.30859 35.5001 1.30859C41.9245 1.30859 48.0857 3.86068 52.6285 8.40341C57.1712 12.9461 59.7233 19.1074 59.7233 25.5318C59.7233 35.7475 52.534 47.0044 38.065 59.4303Z" stroke="url(#paint0_linear_2753_4863)" stroke-opacity="0.7"/>
<g filter="url(#filter0_d_2753_4863)">
<ellipse cx="35.3123" cy="25.1561" rx="16.5291" ry="16.5291" fill="white"/>
</g>
<path d="M36.9732 29.9401C36.9732 30.1075 36.9067 30.268 36.7883 30.3864C36.6699 30.5048 36.5094 30.5713 36.342 30.5713C35.9513 30.5713 35.5767 30.4161 35.3005 30.1399C35.0243 29.8637 34.8692 29.4891 34.8692 29.0985V24.8905C34.8692 24.8347 34.847 24.7812 34.8075 24.7417C34.7681 24.7023 34.7146 24.6801 34.6588 24.6801C34.4914 24.6801 34.3308 24.6136 34.2124 24.4952C34.0941 24.3768 34.0276 24.2163 34.0276 24.0489C34.0276 23.8815 34.0941 23.7209 34.2124 23.6026C34.3308 23.4842 34.4914 23.4177 34.6588 23.4177C35.0494 23.4177 35.424 23.5729 35.7002 23.8491C35.9764 24.1253 36.1316 24.4999 36.1316 24.8905V29.0985C36.1316 29.1543 36.1537 29.2078 36.1932 29.2472C36.2326 29.2867 36.2862 29.3089 36.342 29.3089C36.5094 29.3089 36.6699 29.3754 36.7883 29.4937C36.9067 29.6121 36.9732 29.7727 36.9732 29.9401ZM35.0796 21.3137C35.2876 21.3137 35.491 21.252 35.664 21.1364C35.837 21.0208 35.9719 20.8565 36.0515 20.6643C36.1311 20.4721 36.1519 20.2606 36.1113 20.0565C36.0708 19.8524 35.9706 19.665 35.8234 19.5178C35.6763 19.3707 35.4889 19.2705 35.2848 19.2299C35.0807 19.1893 34.8692 19.2102 34.677 19.2898C34.4848 19.3694 34.3205 19.5043 34.2049 19.6773C34.0893 19.8503 34.0276 20.0537 34.0276 20.2617C34.0276 20.5407 34.1384 20.8083 34.3357 21.0056C34.533 21.2029 34.8006 21.3137 35.0796 21.3137ZM46.2307 24.8905C46.2307 27.0128 45.6014 29.0874 44.4223 30.8519C43.2432 32.6165 41.5674 33.9919 39.6067 34.804C37.646 35.6162 35.4885 35.8287 33.407 35.4146C31.3255 35.0006 29.4135 33.9786 27.9129 32.478C26.4122 30.9773 25.3902 29.0654 24.9762 26.9839C24.5622 24.9024 24.7747 22.7449 25.5868 20.7842C26.399 18.8235 27.7743 17.1476 29.5389 15.9685C31.3035 14.7895 33.3781 14.1602 35.5004 14.1602C38.3452 14.1635 41.0726 15.2951 43.0842 17.3067C45.0958 19.3183 46.2274 22.0457 46.2307 24.8905ZM44.9683 24.8905C44.9683 23.0179 44.413 21.1874 43.3727 19.6304C42.3323 18.0734 40.8536 16.8599 39.1236 16.1433C37.3935 15.4266 35.4899 15.2391 33.6533 15.6045C31.8167 15.9698 30.1296 16.8715 28.8055 18.1956C27.4814 19.5198 26.5797 21.2068 26.2143 23.0434C25.849 24.88 26.0365 26.7837 26.7531 28.5137C27.4697 30.2438 28.6833 31.7224 30.2403 32.7628C31.7972 33.8031 33.6278 34.3584 35.5004 34.3584C38.0106 34.3557 40.4172 33.3572 42.1921 31.5823C43.9671 29.8073 44.9655 27.4007 44.9683 24.8905Z" fill="#D5BD6B"/>
<circle cx="35.4999" cy="68.1434" r="2.85632" fill="#D5BD6B"/>
<defs>
<filter id="filter0_d_2753_4863" x="11.7832" y="5.62695" width="47.0581" height="47.0586" filterUnits="userSpaceOnUse" color-interpolation-filters="sRGB">
<feFlood flood-opacity="0" result="BackgroundImageFix"/>
<feColorMatrix in="SourceAlpha" type="matrix" values="0 0 0 0 0 0 0 0 0 0 0 0 0 0 0 0 0 0 127 0" result="hardAlpha"/>
<feOffset dy="4"/>
<feGaussianBlur stdDeviation="3.5"/>
<feComposite in2="hardAlpha" operator="out"/>
<feColorMatrix type="matrix" values="0 0 0 0 0 0 0 0 0 0 0 0 0 0 0 0 0 0 0.15 0"/>
<feBlend mode="normal" in2="BackgroundImageFix" result="effect1_dropShadow_2753_4863"/>
<feBlend mode="normal" in="SourceGraphic" in2="effect1_dropShadow_2753_4863" result="shape"/>
</filter>
<linearGradient id="paint0_linear_2753_4863" x1="35.5001" y1="0.808594" x2="35.5001" y2="60.8811" gradientUnits="userSpaceOnUse">
<stop stop-color="white"/>
<stop offset="1" stop-color="white" stop-opacity="0"/>
</linearGradient>
</defs>
</svg>
