<svg width="71" height="71" viewBox="0 0 71 71" fill="none" xmlns="http://www.w3.org/2000/svg">
<path d="M35.5001 0.808594C42.0571 0.808594 48.3455 3.41335 52.982 8.04986C57.6185 12.6864 60.2233 18.9748 60.2233 25.5318C60.2233 35.9789 52.8824 47.3643 38.3908 59.8096C37.585 60.5018 36.5576 60.882 35.4953 60.881C34.433 60.8801 33.4063 60.4981 32.6018 59.8045L31.6432 58.9728C17.7932 46.8521 10.7769 35.7457 10.7769 25.5318C10.7769 18.9748 13.3816 12.6864 18.0181 8.04986C22.6546 3.41335 28.9431 0.808594 35.5001 0.808594Z" fill="#646465"/>
<path d="M38.065 59.4303L38.065 59.4303C37.35 60.0445 36.4384 60.3819 35.4958 60.381C34.5532 60.3802 33.6423 60.0413 32.9284 59.426C32.9283 59.4259 32.9283 59.4259 32.9282 59.4258L31.9725 58.5965C31.9722 58.5962 31.9718 58.5959 31.9715 58.5956C18.1466 46.4967 11.2769 35.5183 11.2769 25.5318C11.2769 19.1074 13.8289 12.9461 18.3717 8.40341C22.9144 3.86068 29.0757 1.30859 35.5001 1.30859C41.9245 1.30859 48.0857 3.86068 52.6285 8.40341C57.1712 12.9461 59.7233 19.1074 59.7233 25.5318C59.7233 35.7475 52.534 47.0044 38.065 59.4303Z" stroke="url(#paint0_linear_2729_9825)" stroke-opacity="0.7"/>
<g filter="url(#filter0_d_2729_9825)">
<ellipse cx="35.3123" cy="25.1561" rx="16.5291" ry="16.5291" fill="white"/>
</g>
<g clip-path="url(#clip0_2729_9825)">
<path d="M34.79 14.7197C32.9223 15.0123 31.3299 16.4497 30.9082 18.2099C30.8694 18.3691 30.8264 18.5111 30.8135 18.5284C30.7963 18.5456 30.4821 18.6187 30.112 18.6919C27.1985 19.2471 25.2489 20.2154 24.6636 21.3989C24.5087 21.713 24.5044 21.7345 24.5044 22.195C24.5044 22.6512 24.513 22.6856 24.6464 22.9568C25.193 24.0413 26.8757 24.945 29.4708 25.5346C29.7935 25.6121 30.0561 25.6723 30.0604 25.6766C30.0991 25.7842 30.5725 26.3781 30.8307 26.6493C31.7646 27.6262 32.8921 28.2459 34.2521 28.5342C34.7728 28.6461 36.2274 28.6461 36.7482 28.5342C38.1081 28.2459 39.2357 27.6262 40.1695 26.6493C40.4278 26.3781 40.9011 25.7842 40.9399 25.6766C40.9442 25.6723 41.2067 25.6121 41.5295 25.5346C42.7904 25.2506 43.7846 24.9063 44.6023 24.4845C45.5146 24.0112 46.0655 23.5334 46.3538 22.9568C46.4872 22.6856 46.4958 22.6512 46.4958 22.195C46.4958 21.7345 46.4915 21.713 46.3366 21.3989C45.7513 20.2154 43.8018 19.2471 40.8882 18.6919C40.5181 18.6187 40.204 18.5456 40.1867 18.5284C40.1738 18.5111 40.1308 18.3691 40.0921 18.2099C39.765 16.8456 38.6805 15.5976 37.3205 15.0338C36.7353 14.7885 36.4082 14.7283 35.6292 14.7111C35.2376 14.7024 34.8632 14.7067 34.79 14.7197ZM36.533 15.7181C37.8025 16.0839 38.8569 17.1383 39.2012 18.3906C39.3217 18.8296 39.382 19.5956 39.3648 20.3961C39.3518 21.0632 39.3518 21.0675 39.2357 21.1665C39.0076 21.3601 37.5615 21.6313 36.2834 21.713C35.6766 21.7518 35.3237 21.7518 34.7126 21.713C33.4387 21.627 31.9927 21.3601 31.7646 21.1665L31.6484 21.0675L31.6527 20.0604C31.6527 19.2772 31.6699 18.9802 31.7302 18.6919C32.0486 17.1641 33.1934 15.9978 34.7039 15.6621C35.1386 15.5632 36.0983 15.5933 36.533 15.7181ZM30.8823 21.5108C31.0028 21.7345 31.2654 21.9842 31.4676 22.0702C31.5537 22.1047 31.8679 22.195 32.1605 22.2639C33.4344 22.5651 35.0052 22.6985 36.3049 22.6168C37.54 22.5393 39.0033 22.2897 39.5326 22.0702C39.7607 21.9755 40.0103 21.7216 40.1308 21.4677C40.2298 21.2611 40.2341 21.2095 40.2341 20.366V19.4794L40.6558 19.5612C43.1778 20.0389 45.0972 20.9255 45.5232 21.8034C45.7083 22.1907 45.6179 22.5479 45.2349 22.9439C44.2752 23.9251 41.749 24.7514 38.7063 25.0784C36.7396 25.2936 34.2607 25.2936 32.2939 25.0784C28.8381 24.7083 26.0408 23.6755 25.4727 22.5608C24.9261 21.4935 26.8757 20.2584 30.1636 19.6L30.7446 19.4838L30.7661 20.409C30.7877 21.2568 30.7963 21.3558 30.8823 21.5108ZM31.9927 25.965C33.0341 26.0898 33.641 26.1156 35.4786 26.1156C37.3851 26.1156 38.0608 26.0855 39.1582 25.9435C39.4035 25.909 39.6144 25.8918 39.623 25.8961C39.6574 25.9306 38.9258 26.5546 38.5987 26.7784C37.6347 27.4196 36.632 27.7295 35.5001 27.7295C34.0713 27.7295 32.7286 27.1915 31.6914 26.206C31.3514 25.8789 31.3471 25.8789 31.4978 25.9004C31.5795 25.9133 31.8033 25.9392 31.9927 25.965Z" fill="#646465"/>
<path d="M34.872 16.4758C34.1059 16.6393 33.2753 17.2074 33.0128 17.7324C32.8665 18.0337 33.0946 18.3737 33.4389 18.3651C33.5981 18.3608 33.6411 18.3263 33.9424 18.0208C34.1619 17.797 34.3555 17.6421 34.5191 17.5646C34.7945 17.4269 35.199 17.315 35.397 17.315C35.7413 17.315 35.9307 17.1472 35.9307 16.8416C35.9307 16.6996 35.9048 16.635 35.8059 16.536C35.6897 16.4241 35.6509 16.4112 35.4056 16.4155C35.255 16.4155 35.014 16.4457 34.872 16.4758Z" fill="#646465"/>
<path d="M32.802 18.9806C32.6427 19.0107 32.4878 19.2345 32.4878 19.4325C32.4878 19.9188 33.2108 20.0264 33.3528 19.5573C33.4217 19.3292 33.3184 19.0968 33.1161 19.015C33.03 18.9806 32.9483 18.9548 32.9311 18.9548C32.9139 18.9591 32.8536 18.972 32.802 18.9806Z" fill="#646465"/>
<path d="M27.5514 21.2827C27.2329 21.3644 27.1296 21.7733 27.362 22.01C27.4653 22.1089 27.5256 22.1348 27.6805 22.1348C28.085 22.1348 28.2701 21.6743 27.9861 21.3859C27.8613 21.2654 27.7365 21.2353 27.5514 21.2827Z" fill="#646465"/>
<path d="M43.2167 21.2657C43.0102 21.2958 42.8466 21.5712 42.894 21.8122C42.9542 22.135 43.3932 22.2512 43.6385 22.0102C43.9527 21.696 43.6729 21.2011 43.2167 21.2657Z" fill="#646465"/>
<path d="M30.6414 23.1855C30.2971 23.3749 30.3961 23.9343 30.7834 24.0118C31.0803 24.0677 31.3687 23.7665 31.3041 23.4652C31.2439 23.1941 30.891 23.0478 30.6414 23.1855Z" fill="#646465"/>
<path d="M39.8553 23.232C39.6917 23.3697 39.6487 23.5419 39.7348 23.7398C39.8639 24.0497 40.2512 24.1099 40.4664 23.8517C40.815 23.4386 40.2641 22.8877 39.8553 23.232Z" fill="#646465"/>
<path d="M35.1817 23.7102C35.0913 23.8005 35.0698 23.8651 35.0698 24.0286C35.0698 24.1922 35.0913 24.2567 35.1817 24.3471C35.2721 24.4375 35.3366 24.459 35.5002 24.459C35.6637 24.459 35.7283 24.4375 35.8187 24.3471C35.909 24.2567 35.9305 24.1922 35.9305 24.0286C35.9305 23.8651 35.909 23.8005 35.8187 23.7102C35.7283 23.6198 35.6637 23.5983 35.5002 23.5983C35.3366 23.5983 35.2721 23.6198 35.1817 23.7102Z" fill="#646465"/>
<path d="M44.9208 14.8141C44.8046 14.9303 44.796 14.9647 44.796 15.2445V15.55H44.5162C44.1805 15.55 44.0471 15.6232 43.9783 15.8341C43.9395 15.9417 43.9395 16.0191 43.9783 16.1267C44.0471 16.3376 44.1805 16.4108 44.5162 16.4108H44.796V16.7163C44.796 16.9961 44.8046 17.0305 44.9208 17.1467C45.0197 17.2457 45.0843 17.2715 45.2263 17.2715C45.5577 17.2715 45.6997 17.0821 45.6997 16.6432V16.4108H45.9967C46.2549 16.4108 46.3022 16.3979 46.4055 16.2989C46.4959 16.2085 46.5174 16.1439 46.5174 15.9804C46.5174 15.8169 46.4959 15.7523 46.4055 15.6619C46.3022 15.563 46.2549 15.55 45.9967 15.55H45.6997V15.3176C45.6997 14.8787 45.5577 14.6893 45.2263 14.6893C45.0843 14.6893 45.0197 14.7151 44.9208 14.8141Z" fill="#646465"/>
<path d="M26.9185 16.1359C26.8282 16.2263 26.8066 16.2909 26.8066 16.4544C26.8066 16.7384 26.953 16.8848 27.237 16.8848C27.521 16.8848 27.6674 16.7384 27.6674 16.4544C27.6674 16.1704 27.521 16.024 27.237 16.024C27.0735 16.024 27.0089 16.0456 26.9185 16.1359Z" fill="#646465"/>
<path d="M30.9942 27.5834C30.921 27.6221 30.8306 27.7125 30.7919 27.7857C30.7575 27.8631 30.0388 29.7739 29.1996 32.0333C28.1021 34.977 27.6675 36.1906 27.6675 36.3154C27.6718 36.5823 27.8267 36.7243 28.1151 36.7243C28.4421 36.7243 28.3862 36.8491 30.0732 32.3088C31.1663 29.3694 31.6268 28.0783 31.6268 27.9578C31.6268 27.8287 31.5967 27.7555 31.5149 27.6695C31.4504 27.6092 31.3772 27.5576 31.3514 27.5576C31.3255 27.5576 31.2653 27.549 31.218 27.5361C31.1706 27.5232 31.0716 27.5447 30.9942 27.5834Z" fill="#646465"/>
<path d="M39.6877 27.5447C39.5199 27.5791 39.3735 27.7685 39.3735 27.9578C39.3735 28.0783 39.834 29.3694 40.9271 32.3088C42.6142 36.8491 42.5582 36.7243 42.8853 36.7243C43.1736 36.7243 43.3286 36.5823 43.3329 36.3154C43.3329 36.1906 42.8982 34.977 41.8008 32.0333C40.9616 29.7739 40.2429 27.8631 40.2041 27.7857C40.1482 27.6652 39.9158 27.5059 39.8168 27.5188C39.7996 27.5232 39.7393 27.5361 39.6877 27.5447Z" fill="#646465"/>
<path d="M25.292 29.0123L24.4829 29.8214V30.0537V30.2861L25.292 31.0952L26.1011 31.9043H26.3292H26.5573L27.2501 31.2243C28.0635 30.4239 28.184 30.2732 28.184 30.0537C28.184 29.8343 28.0635 29.6836 27.2501 28.8789L26.5573 28.2032H26.3292H26.1011L25.292 29.0123ZM26.7208 29.6879L27.0866 30.0537L26.7079 30.4325L26.3335 30.8069L25.959 30.4325L25.5803 30.0537L25.9461 29.6879C26.1441 29.4857 26.3206 29.3221 26.3335 29.3221C26.3464 29.3221 26.5228 29.4857 26.7208 29.6879Z" fill="#646465"/>
<path d="M43.4961 28.3066C43.3842 28.3368 43.2164 28.4142 43.1217 28.4788C42.3083 29.0425 42.3987 30.2949 43.2809 30.7296C43.6123 30.8931 44.1115 30.9017 44.4128 30.7511C45.3467 30.2949 45.4241 28.9952 44.5548 28.4529C44.2406 28.255 43.8705 28.2076 43.4961 28.3066ZM44.1503 29.3008C44.3052 29.46 44.2923 29.6838 44.1158 29.843C43.9652 29.9764 43.8576 29.9979 43.707 29.9205C43.4832 29.8043 43.4057 29.5805 43.5219 29.3696C43.651 29.1329 43.948 29.1028 44.1503 29.3008Z" fill="#646465"/>
<path d="M35.1817 29.7355C35.0913 29.8259 35.0698 29.8905 35.0698 30.054C35.0698 30.2176 35.0913 30.2821 35.1817 30.3725C35.2721 30.4629 35.3366 30.4844 35.5002 30.4844C35.6637 30.4844 35.7283 30.4629 35.8187 30.3725C35.909 30.2821 35.9305 30.2176 35.9305 30.054C35.9305 29.8905 35.909 29.8259 35.8187 29.7355C35.7283 29.6452 35.6637 29.6237 35.5002 29.6237C35.3366 29.6237 35.2721 29.6452 35.1817 29.7355Z" fill="#646465"/>
<path d="M35.384 31.3754C35.3323 31.384 35.242 31.4442 35.1817 31.5045L35.0698 31.6164V33.4755V35.3347L35.1817 35.4509C35.3453 35.6101 35.6551 35.6101 35.8187 35.4509L35.9305 35.3347V33.4755V31.6164L35.8187 31.5002C35.7541 31.4399 35.6809 31.3883 35.6465 31.3883C35.6164 31.3883 35.569 31.3797 35.5346 31.3711C35.5045 31.3625 35.4356 31.3668 35.384 31.3754Z" fill="#646465"/>
<path d="M45.9709 34.1288C45.9193 34.1374 45.8289 34.1976 45.7686 34.2579C45.6783 34.3439 45.6567 34.4085 45.6567 34.572C45.6567 34.7528 45.674 34.7958 45.7902 34.8905C46.0914 35.1487 46.5175 34.9551 46.5175 34.5591C46.5175 34.4085 46.4916 34.3439 46.4056 34.2536C46.341 34.1933 46.2679 34.1417 46.2334 34.1417C46.2033 34.1417 46.156 34.1331 46.1215 34.1245C46.0914 34.1159 46.0225 34.1202 45.9709 34.1288Z" fill="#646465"/>
</g>
<circle cx="35.4999" cy="68.1434" r="2.85632" fill="#646465"/>
<defs>
<filter id="filter0_d_2729_9825" x="11.7832" y="5.62695" width="47.0581" height="47.0586" filterUnits="userSpaceOnUse" color-interpolation-filters="sRGB">
<feFlood flood-opacity="0" result="BackgroundImageFix"/>
<feColorMatrix in="SourceAlpha" type="matrix" values="0 0 0 0 0 0 0 0 0 0 0 0 0 0 0 0 0 0 127 0" result="hardAlpha"/>
<feOffset dy="4"/>
<feGaussianBlur stdDeviation="3.5"/>
<feComposite in2="hardAlpha" operator="out"/>
<feColorMatrix type="matrix" values="0 0 0 0 0 0 0 0 0 0 0 0 0 0 0 0 0 0 0.15 0"/>
<feBlend mode="normal" in2="BackgroundImageFix" result="effect1_dropShadow_2729_9825"/>
<feBlend mode="normal" in="SourceGraphic" in2="effect1_dropShadow_2729_9825" result="shape"/>
</filter>
<linearGradient id="paint0_linear_2729_9825" x1="35.5001" y1="0.808594" x2="35.5001" y2="60.8811" gradientUnits="userSpaceOnUse">
<stop stop-color="white"/>
<stop offset="1" stop-color="white" stop-opacity="0"/>
</linearGradient>
<clipPath id="clip0_2729_9825">
<rect width="22.0345" height="22.0345" fill="white" transform="translate(24.4829 14.6895)"/>
</clipPath>
</defs>
</svg>
